<svg xmlns="http://www.w3.org/2000/svg" width="96.301" height="17.598" viewBox="0 0 96.301 17.598" fill="none">
  <path d="M 50.264 5.127 C 51.516 5.127 52.634 5.379 53.616 5.884 C 54.599 6.379 55.377 7.092 55.951 8.022 C 56.525 8.953 56.812 10.066 56.813 11.362 C 56.813 12.632 56.529 13.737 55.964 14.676 C 55.399 15.606 54.625 16.329 53.643 16.842 C 52.66 17.346 51.533 17.598 50.264 17.598 C 49.003 17.598 47.88 17.346 46.897 16.842 C 45.915 16.337 45.141 15.619 44.576 14.688 C 44.011 13.758 43.728 12.649 43.728 11.362 C 43.728 10.084 44.006 8.979 44.563 8.049 C 45.128 7.11 45.902 6.388 46.885 5.884 C 47.876 5.379 49.003 5.127 50.264 5.127 Z M 8.609 0 C 9.531 0 10.418 0.161 11.271 0.482 C 12.123 0.804 12.849 1.296 13.449 1.957 L 13.646 0.339 L 15.615 0.339 L 15.615 5.531 L 13.71 5.531 C 13.614 4.401 13.153 3.501 12.327 2.831 C 11.51 2.161 10.405 1.826 9.014 1.826 C 7.84 1.826 6.822 2.101 5.961 2.648 C 5.1 3.196 4.435 3.988 3.966 5.022 C 3.505 6.057 3.274 7.297 3.274 8.74 C 3.274 10.184 3.505 11.427 3.966 12.471 C 4.435 13.506 5.1 14.302 5.961 14.858 C 6.831 15.415 7.853 15.693 9.027 15.693 C 10.671 15.693 11.91 15.389 12.745 14.78 C 13.589 14.163 14.028 13.04 14.063 11.414 L 15.954 11.779 L 15.798 15.354 C 14.763 16.181 13.671 16.754 12.523 17.076 C 11.384 17.389 10.184 17.546 8.923 17.546 C 6.975 17.546 5.335 17.172 4.005 16.424 C 2.683 15.676 1.682 14.645 1.004 13.332 C 0.334 12.01 0 10.493 0 8.779 C 0 7.023 0.352 5.487 1.057 4.174 C 1.77 2.852 2.77 1.826 4.057 1.096 C 5.352 0.365 6.87 0 8.609 0 Z M 23.938 5.127 C 25.92 5.127 27.343 5.461 28.204 6.131 C 29.074 6.8 29.508 7.879 29.508 9.366 L 29.508 14.089 C 29.508 14.645 29.535 15.042 29.587 15.276 C 29.648 15.502 29.761 15.637 29.926 15.681 C 30.091 15.724 30.339 15.745 30.669 15.745 L 31.27 15.745 L 31.27 17.22 C 31.148 17.211 30.978 17.207 30.761 17.207 C 30.552 17.207 30.334 17.211 30.108 17.22 L 29.573 17.22 C 29.095 17.228 28.647 17.232 28.229 17.232 C 27.821 17.241 27.399 17.254 26.965 17.271 L 26.834 15.511 C 26.356 16.154 25.76 16.65 25.047 16.998 C 24.334 17.337 23.455 17.507 22.411 17.507 C 21.081 17.507 20.037 17.164 19.28 16.477 C 18.532 15.79 18.159 14.932 18.159 13.906 C 18.159 12.776 18.62 11.871 19.542 11.192 C 20.464 10.506 21.742 10.162 23.377 10.162 C 23.925 10.162 24.482 10.201 25.047 10.279 C 25.612 10.358 26.169 10.466 26.717 10.605 L 26.717 8.818 C 26.717 8.079 26.464 7.505 25.96 7.097 C 25.456 6.679 24.681 6.471 23.638 6.471 C 21.925 6.471 20.903 7.162 20.572 8.545 L 19.059 8.388 L 19.202 5.987 C 19.654 5.779 20.281 5.583 21.081 5.4 C 21.89 5.218 22.842 5.127 23.938 5.127 Z M 72.675 5.127 C 74.658 5.127 76.08 5.461 76.941 6.131 C 77.811 6.8 78.246 7.879 78.246 9.366 L 78.246 14.089 C 78.246 14.645 78.272 15.042 78.324 15.276 C 78.385 15.502 78.498 15.637 78.663 15.681 C 78.828 15.724 79.076 15.745 79.406 15.745 L 80.007 15.745 L 80.007 17.22 C 79.885 17.211 79.715 17.207 79.498 17.207 C 79.289 17.207 79.072 17.211 78.846 17.22 L 78.311 17.22 C 77.832 17.228 77.384 17.232 76.967 17.232 C 76.558 17.241 76.137 17.254 75.702 17.271 L 75.571 15.511 C 75.093 16.154 74.497 16.65 73.784 16.998 C 73.071 17.337 72.193 17.507 71.149 17.507 C 69.819 17.507 68.775 17.163 68.019 16.477 C 67.271 15.79 66.896 14.932 66.896 13.906 C 66.896 12.776 67.357 11.871 68.279 11.192 C 69.201 10.506 70.479 10.162 72.114 10.162 C 72.662 10.162 73.219 10.201 73.784 10.279 C 74.349 10.358 74.906 10.466 75.454 10.605 L 75.454 8.818 C 75.454 8.079 75.202 7.505 74.697 7.097 C 74.193 6.679 73.419 6.471 72.375 6.471 C 70.662 6.471 69.64 7.162 69.31 8.545 L 67.796 8.388 L 67.939 5.987 C 68.392 5.779 69.018 5.583 69.818 5.4 C 70.627 5.218 71.579 5.127 72.675 5.127 Z M 41.471 5.218 C 41.853 5.218 42.254 5.244 42.671 5.296 L 42.671 8.506 L 42.149 8.506 C 41.967 8.506 41.797 8.51 41.641 8.519 C 41.493 8.118 41.297 7.809 41.054 7.592 C 40.81 7.374 40.475 7.267 40.049 7.267 C 39.257 7.267 38.605 7.619 38.092 8.323 C 37.579 9.019 37.3 9.927 37.257 11.049 C 37.248 11.075 37.24 11.215 37.231 11.467 C 37.231 11.719 37.226 12.027 37.218 12.393 L 37.218 14.95 C 37.218 15.35 37.371 15.581 37.675 15.642 C 37.988 15.694 38.549 15.72 39.357 15.72 L 39.357 17.22 C 38.766 17.22 38.183 17.216 37.609 17.207 C 37.035 17.198 36.348 17.193 35.548 17.193 C 34.887 17.193 34.331 17.198 33.879 17.207 C 33.435 17.216 32.965 17.22 32.47 17.22 L 32.47 15.72 C 33.122 15.72 33.579 15.698 33.84 15.654 C 34.109 15.611 34.27 15.524 34.322 15.394 C 34.383 15.254 34.413 15.05 34.413 14.78 L 34.413 7.605 C 34.413 7.275 34.287 7.083 34.035 7.031 C 33.792 6.979 33.292 6.953 32.535 6.953 L 32.535 5.492 L 33.213 5.492 C 33.526 5.492 33.813 5.496 34.074 5.505 L 34.466 5.505 C 34.883 5.505 35.309 5.496 35.744 5.479 C 36.179 5.461 36.622 5.448 37.074 5.439 L 37.074 7.854 C 37.483 7.019 38.058 6.37 38.797 5.909 C 39.545 5.448 40.436 5.218 41.471 5.218 Z M 63.035 14.663 C 63.035 15.132 63.178 15.428 63.465 15.55 C 63.761 15.663 64.239 15.72 64.9 15.72 L 64.9 17.22 L 63.36 17.22 C 62.856 17.211 62.26 17.202 61.573 17.193 C 60.921 17.193 60.351 17.198 59.864 17.207 C 59.386 17.216 58.899 17.22 58.403 17.22 L 58.403 16.933 C 58.403 16.794 58.399 16.642 58.391 16.477 L 58.391 15.72 C 59.017 15.72 59.456 15.681 59.708 15.603 C 59.969 15.516 60.126 15.38 60.178 15.197 C 60.23 15.015 60.256 14.776 60.256 14.48 L 60.256 2.518 C 60.256 2.161 60.099 1.952 59.786 1.892 C 59.482 1.822 59.038 1.783 58.456 1.774 L 58.456 0.3 L 59.213 0.3 C 59.5 0.291 59.782 0.287 60.061 0.287 C 60.347 0.278 60.582 0.273 60.765 0.273 C 61.13 0.273 61.5 0.269 61.874 0.261 C 62.248 0.252 62.635 0.243 63.035 0.234 L 63.035 14.663 Z M 90.417 5.231 C 91.756 5.231 92.778 5.588 93.482 6.301 C 94.187 7.005 94.539 8.132 94.539 9.68 L 94.539 15.106 C 94.539 15.428 94.674 15.611 94.943 15.654 C 95.213 15.689 95.666 15.711 96.301 15.72 L 96.301 17.22 L 94.931 17.22 C 94.487 17.211 93.939 17.202 93.287 17.193 C 92.644 17.193 92.052 17.198 91.513 17.207 C 90.974 17.216 90.435 17.22 89.896 17.22 L 89.896 15.72 C 90.512 15.72 90.947 15.702 91.199 15.667 C 91.46 15.632 91.617 15.563 91.669 15.459 C 91.721 15.346 91.748 15.189 91.748 14.989 L 91.748 10.371 C 91.748 9.267 91.595 8.44 91.291 7.893 C 90.987 7.345 90.369 7.07 89.438 7.07 C 88.569 7.07 87.855 7.262 87.299 7.645 C 86.751 8.018 86.33 8.397 86.034 8.779 C 85.999 9.092 85.972 9.415 85.955 9.745 C 85.946 10.067 85.942 10.41 85.942 10.775 L 85.942 14.989 C 85.942 15.354 86.09 15.567 86.386 15.628 C 86.69 15.689 87.19 15.72 87.886 15.72 L 87.886 17.22 L 86.373 17.22 C 85.886 17.211 85.285 17.202 84.572 17.193 C 83.903 17.193 83.303 17.198 82.772 17.207 C 82.251 17.216 81.738 17.22 81.233 17.22 L 81.233 16.933 C 81.233 16.794 81.228 16.642 81.22 16.477 L 81.22 15.72 C 81.82 15.72 82.255 15.702 82.524 15.667 C 82.803 15.632 82.976 15.558 83.046 15.445 C 83.124 15.324 83.164 15.15 83.164 14.924 L 83.164 7.462 C 83.164 7.21 83.029 7.062 82.76 7.019 C 82.499 6.975 82.011 6.953 81.298 6.953 L 81.298 5.492 L 82.225 5.492 C 82.52 5.492 82.808 5.487 83.086 5.479 C 83.564 5.479 84.029 5.475 84.481 5.466 C 84.942 5.457 85.403 5.444 85.864 5.427 L 85.864 7.306 C 86.421 6.688 87.086 6.192 87.86 5.818 C 88.643 5.436 89.495 5.24 90.417 5.231 Z M 24.095 11.35 C 23.095 11.35 22.307 11.562 21.733 11.988 C 21.159 12.414 20.872 13.006 20.872 13.763 C 20.872 14.45 21.103 15.002 21.563 15.42 C 22.033 15.829 22.629 16.032 23.351 16.032 C 23.916 16.032 24.456 15.919 24.969 15.693 C 25.482 15.467 25.899 15.132 26.221 14.688 C 26.551 14.245 26.717 13.697 26.717 13.045 L 26.717 11.754 C 26.247 11.615 25.794 11.515 25.359 11.454 C 24.933 11.385 24.512 11.35 24.095 11.35 Z M 72.832 11.35 C 71.832 11.35 71.045 11.562 70.471 11.988 C 69.897 12.414 69.609 13.006 69.609 13.763 C 69.609 14.45 69.84 15.002 70.301 15.42 C 70.77 15.829 71.366 16.032 72.088 16.032 C 72.653 16.032 73.193 15.919 73.706 15.693 C 74.219 15.467 74.636 15.132 74.958 14.688 C 75.288 14.245 75.454 13.697 75.454 13.045 L 75.454 11.754 C 74.985 11.615 74.532 11.515 74.098 11.454 C 73.672 11.385 73.249 11.35 72.832 11.35 Z M 50.264 6.744 C 49.133 6.744 48.237 7.157 47.576 7.983 C 46.924 8.801 46.598 9.923 46.598 11.35 C 46.598 12.767 46.924 13.889 47.576 14.715 C 48.228 15.541 49.12 15.954 50.25 15.954 C 51.381 15.954 52.277 15.541 52.938 14.715 C 53.598 13.88 53.93 12.754 53.93 11.336 C 53.93 9.918 53.598 8.801 52.938 7.983 C 52.285 7.157 51.394 6.744 50.264 6.744 Z" fill="currentColor" fill-rule="nonzero"></path>
</svg>