<svg xmlns="http://www.w3.org/2000/svg" width="215.713" height="39.420" viewBox="0 0 215.713 39.420" fill="none">
  <path d="M 112.59 11.483 C 115.395 11.483 117.899 12.049 120.101 13.179 C 122.302 14.289 124.045 15.886 125.331 17.971 C 126.617 20.055 127.26 22.549 127.26 25.452 C 127.26 28.296 126.627 30.77 125.36 32.874 C 124.094 34.958 122.36 36.575 120.158 37.725 C 117.957 38.854 115.434 39.42 112.59 39.42 C 109.765 39.42 107.252 38.854 105.051 37.725 C 102.85 36.595 101.116 34.988 99.85 32.903 C 98.583 30.819 97.95 28.335 97.95 25.452 C 97.95 22.588 98.574 20.114 99.82 18.029 C 101.087 15.925 102.82 14.309 105.021 13.179 C 107.242 12.049 109.765 11.483 112.59 11.483 Z M 19.286 0 C 21.351 0 23.338 0.36 25.247 1.081 C 27.156 1.802 28.783 2.902 30.127 4.383 L 30.565 0.76 L 34.978 0.76 L 34.978 12.39 L 30.712 12.39 C 30.498 9.857 29.465 7.841 27.614 6.341 C 25.783 4.841 23.308 4.091 20.191 4.091 C 17.562 4.091 15.282 4.704 13.354 5.932 C 11.425 7.159 9.935 8.932 8.883 11.25 C 7.85 13.568 7.334 16.344 7.334 19.578 C 7.334 22.812 7.85 25.598 8.883 27.936 C 9.935 30.254 11.425 32.036 13.354 33.283 C 15.302 34.53 17.591 35.153 20.221 35.153 C 23.903 35.153 26.679 34.471 28.549 33.107 C 30.438 31.724 31.422 29.211 31.5 25.568 L 35.737 26.387 L 35.387 34.394 C 33.069 36.244 30.624 37.53 28.053 38.251 C 25.501 38.952 22.812 39.303 19.987 39.303 C 15.624 39.303 11.951 38.465 8.971 36.79 C 6.01 35.115 3.77 32.806 2.25 29.864 C 0.75 26.903 0 23.504 0 19.666 C 0 15.731 0.788 12.292 2.366 9.351 C 3.964 6.389 6.205 4.091 9.088 2.454 C 11.99 0.818 15.39 0 19.286 0 Z M 53.621 11.483 C 58.063 11.483 61.248 12.233 63.177 13.733 C 65.125 15.233 66.099 17.649 66.099 20.98 L 66.099 31.559 C 66.099 32.805 66.157 33.692 66.273 34.218 C 66.41 34.724 66.663 35.027 67.033 35.124 C 67.403 35.221 67.959 35.271 68.699 35.271 L 70.044 35.271 L 70.044 38.572 C 69.771 38.553 69.391 38.543 68.904 38.543 C 68.437 38.543 67.949 38.553 67.442 38.572 L 66.245 38.572 C 65.174 38.592 64.169 38.602 63.234 38.602 C 62.319 38.621 61.374 38.65 60.4 38.689 L 60.108 34.744 C 59.037 36.186 57.702 37.296 56.104 38.075 C 54.507 38.835 52.54 39.215 50.202 39.215 C 47.222 39.215 44.883 38.445 43.188 36.906 C 41.513 35.367 40.676 33.448 40.676 31.149 C 40.676 28.617 41.709 26.592 43.773 25.072 C 45.838 23.533 48.702 22.764 52.364 22.764 C 53.591 22.764 54.838 22.851 56.104 23.026 C 57.371 23.202 58.618 23.445 59.845 23.757 L 59.845 19.754 C 59.845 18.098 59.28 16.812 58.15 15.896 C 57.021 14.961 55.287 14.493 52.949 14.493 C 49.112 14.493 46.822 16.042 46.082 19.14 L 42.692 18.789 L 43.014 13.412 C 44.027 12.945 45.43 12.507 47.222 12.098 C 49.033 11.689 51.167 11.483 53.621 11.483 Z M 162.793 11.483 C 167.235 11.483 170.42 12.233 172.349 13.733 C 174.297 15.233 175.27 17.649 175.271 20.98 L 175.271 31.559 C 175.271 32.805 175.328 33.692 175.445 34.218 C 175.582 34.724 175.835 35.027 176.205 35.124 C 176.575 35.221 177.131 35.271 177.871 35.271 L 179.215 35.271 L 179.215 38.572 C 178.942 38.553 178.562 38.543 178.075 38.543 C 177.608 38.543 177.121 38.553 176.614 38.572 L 175.416 38.572 C 174.345 38.592 173.341 38.602 172.406 38.602 C 171.491 38.621 170.546 38.65 169.572 38.689 L 169.28 34.744 C 168.209 36.186 166.874 37.296 165.276 38.075 C 163.679 38.835 161.712 39.215 159.374 39.215 C 156.393 39.215 154.055 38.445 152.36 36.906 C 150.685 35.367 149.848 33.448 149.848 31.149 C 149.848 28.617 150.88 26.592 152.945 25.072 C 155.01 23.533 157.874 22.764 161.536 22.764 C 162.763 22.764 164.01 22.851 165.276 23.026 C 166.543 23.202 167.789 23.445 169.017 23.757 L 169.017 19.754 C 169.017 18.098 168.452 16.812 167.322 15.896 C 166.192 14.961 164.459 14.493 162.121 14.493 C 158.283 14.493 155.994 16.042 155.254 19.14 L 151.864 18.789 L 152.186 13.412 C 153.199 12.945 154.601 12.507 156.394 12.098 C 158.205 11.689 160.338 11.483 162.793 11.483 Z M 92.895 11.688 C 93.752 11.688 94.648 11.746 95.583 11.863 L 95.583 19.052 L 94.414 19.052 C 94.005 19.052 93.625 19.062 93.274 19.081 C 92.943 18.185 92.505 17.494 91.96 17.007 C 91.415 16.52 90.664 16.276 89.71 16.276 C 87.937 16.276 86.476 17.066 85.326 18.644 C 84.177 20.202 83.553 22.237 83.456 24.75 C 83.437 24.808 83.417 25.121 83.397 25.686 C 83.397 26.25 83.388 26.942 83.368 27.76 L 83.368 33.487 C 83.368 34.383 83.71 34.9 84.392 35.036 C 85.093 35.153 86.35 35.212 88.161 35.212 L 88.161 38.572 C 86.836 38.572 85.531 38.562 84.245 38.543 C 82.959 38.523 81.42 38.514 79.628 38.514 C 78.147 38.514 76.901 38.523 75.888 38.543 C 74.894 38.562 73.843 38.572 72.732 38.572 L 72.732 35.212 C 74.193 35.212 75.215 35.163 75.8 35.065 C 76.404 34.968 76.765 34.774 76.882 34.481 C 77.018 34.17 77.086 33.711 77.086 33.107 L 77.086 17.036 C 77.086 16.296 76.803 15.867 76.238 15.75 C 75.693 15.633 74.573 15.575 72.878 15.575 L 72.878 12.302 L 74.397 12.302 C 75.099 12.302 75.742 12.312 76.326 12.331 L 77.203 12.331 C 78.138 12.331 79.092 12.311 80.066 12.272 C 81.04 12.234 82.034 12.205 83.047 12.186 L 83.047 17.591 C 83.962 15.721 85.249 14.27 86.904 13.237 C 88.58 12.205 90.576 11.689 92.895 11.688 Z M 141.198 32.845 C 141.198 33.897 141.519 34.559 142.162 34.832 C 142.824 35.085 143.896 35.212 145.376 35.212 L 145.376 38.572 L 141.929 38.572 C 140.799 38.553 139.464 38.533 137.925 38.514 C 136.464 38.514 135.188 38.523 134.097 38.543 C 133.025 38.562 131.935 38.572 130.824 38.572 L 130.824 37.93 C 130.824 37.618 130.814 37.276 130.795 36.906 L 130.795 35.212 C 132.198 35.212 133.181 35.124 133.746 34.948 C 134.33 34.753 134.681 34.452 134.798 34.043 C 134.915 33.634 134.974 33.098 134.974 32.436 L 134.974 5.64 C 134.974 4.841 134.623 4.374 133.922 4.237 C 133.24 4.081 132.246 3.993 130.941 3.974 L 130.941 0.672 L 132.636 0.672 C 133.279 0.652 133.912 0.643 134.535 0.643 C 135.178 0.623 135.704 0.613 136.113 0.613 C 136.931 0.613 137.759 0.603 138.597 0.584 C 139.434 0.565 140.302 0.545 141.198 0.525 L 141.198 32.845 Z M 202.534 11.718 C 205.534 11.718 207.823 12.516 209.401 14.113 C 210.979 15.691 211.768 18.214 211.769 21.682 L 211.769 33.838 C 211.769 34.559 212.07 34.968 212.674 35.065 C 213.278 35.143 214.291 35.192 215.713 35.212 L 215.713 38.572 L 212.645 38.572 C 211.651 38.553 210.424 38.533 208.963 38.514 C 207.521 38.514 206.196 38.523 204.988 38.543 C 203.781 38.562 202.573 38.572 201.365 38.572 L 201.365 35.212 C 202.748 35.212 203.722 35.173 204.287 35.095 C 204.872 35.017 205.223 34.861 205.34 34.627 C 205.457 34.374 205.515 34.023 205.515 33.575 L 205.515 23.23 C 205.515 20.757 205.174 18.906 204.492 17.679 C 203.81 16.451 202.427 15.838 200.343 15.838 C 198.395 15.838 196.797 16.267 195.55 17.124 C 194.323 17.962 193.378 18.809 192.716 19.666 C 192.638 20.367 192.579 21.088 192.54 21.828 C 192.521 22.549 192.511 23.319 192.511 24.137 L 192.511 33.575 C 192.511 34.393 192.843 34.87 193.505 35.007 C 194.187 35.143 195.307 35.212 196.865 35.212 L 196.865 38.572 L 193.476 38.572 C 192.385 38.553 191.04 38.533 189.442 38.514 C 187.943 38.514 186.598 38.523 185.41 38.543 C 184.241 38.562 183.092 38.572 181.962 38.572 L 181.962 37.93 C 181.962 37.618 181.952 37.276 181.933 36.906 L 181.933 35.212 C 183.277 35.212 184.252 35.173 184.855 35.095 C 185.479 35.017 185.869 34.851 186.024 34.598 C 186.2 34.325 186.287 33.935 186.287 33.429 L 186.287 16.715 C 186.287 16.15 185.985 15.818 185.381 15.721 C 184.796 15.623 183.706 15.575 182.108 15.575 L 182.108 12.302 L 184.183 12.302 C 184.845 12.302 185.488 12.292 186.111 12.272 C 187.183 12.272 188.225 12.263 189.238 12.243 C 190.271 12.224 191.303 12.195 192.336 12.156 L 192.336 16.364 C 193.583 14.981 195.073 13.87 196.807 13.032 C 198.56 12.175 200.469 11.737 202.534 11.718 Z M 53.972 25.423 C 51.731 25.423 49.968 25.9 48.683 26.854 C 47.397 27.809 46.754 29.133 46.754 30.828 C 46.754 32.367 47.27 33.605 48.303 34.54 C 49.355 35.455 50.689 35.913 52.306 35.913 C 53.572 35.913 54.78 35.66 55.93 35.153 C 57.079 34.647 58.014 33.897 58.734 32.903 C 59.475 31.91 59.845 30.683 59.845 29.222 L 59.845 26.328 C 58.793 26.016 57.78 25.793 56.806 25.656 C 55.851 25.5 54.907 25.423 53.972 25.423 Z M 163.144 25.423 C 160.903 25.423 159.14 25.9 157.854 26.854 C 156.569 27.809 155.926 29.133 155.926 30.828 C 155.926 32.367 156.442 33.605 157.475 34.54 C 158.526 35.455 159.861 35.913 161.478 35.913 C 162.744 35.913 163.952 35.66 165.102 35.153 C 166.251 34.647 167.186 33.897 167.906 32.903 C 168.646 31.91 169.017 30.683 169.017 29.222 L 169.017 26.328 C 167.965 26.016 166.951 25.793 165.978 25.656 C 165.023 25.5 164.078 25.423 163.144 25.423 Z M 112.59 15.107 C 110.058 15.108 108.051 16.033 106.57 17.884 C 105.109 19.715 104.379 22.228 104.379 25.423 C 104.379 28.598 105.109 31.111 106.57 32.962 C 108.031 34.813 110.029 35.737 112.562 35.737 C 115.094 35.737 117.101 34.812 118.581 32.962 C 120.062 31.092 120.802 28.569 120.802 25.394 C 120.802 22.218 120.061 19.715 118.581 17.884 C 117.12 16.033 115.122 15.107 112.59 15.107 Z" fill="currentColor" fill-rule="nonzero"></path>
</svg>