<svg xmlns="http://www.w3.org/2000/svg" width="154" height="112" viewBox="0 0 154 112" fill="none">
  <path d="M 143.904 79.313 C 143.718 87.983 141.385 93.953 136.905 97.222 C 132.424 100.491 125.799 102.125 117.025 102.125 C 110.758 102.125 105.314 100.642 100.696 97.674 C 96.076 94.707 92.525 90.453 90.042 84.912 C 87.559 79.372 86.317 72.754 86.317 65.056 C 86.317 64.143 86.334 63.245 86.37 62.363 L 86.333 62.349 C 86.333 62.349 80.175 70.81 69.959 77.071 C 63.959 80.749 56.562 83.669 48.187 83.669 C 41.92 83.669 36.477 82.185 31.858 79.218 C 27.238 76.251 23.687 71.997 21.205 66.456 C 18.721 60.916 17.479 54.297 17.479 46.6 C 17.479 38.902 18.721 32.296 21.205 26.778 C 23.687 21.261 27.228 17.041 31.824 14.12 C 36.419 11.198 41.851 9.738 48.118 9.738 C 55.545 9.738 61.453 11.524 65.84 15.093 C 70.228 18.663 72.675 23.462 73.186 29.49 L 83.199 29.49 C 79.724 32.614 76.827 36.32 74.514 40.614 C 71.886 45.494 70.172 50.941 69.37 56.951 C 79.14 41.255 96.956 29.933 112.483 28.397 C 123.36 27.321 130.29 29.916 134.677 33.485 C 139.064 37.056 141.512 41.855 142.023 47.882 L 152.189 47.882 L 152.189 20.202 L 141.675 20.202 L 140.631 28.826 C 137.427 25.304 133.551 22.683 129.002 20.967 C 124.452 19.252 119.717 18.394 114.797 18.394 C 105.512 18.394 97.423 20.341 90.529 24.235 C 87.912 25.714 85.52 27.419 83.351 29.349 L 83.351 1.809 L 72.837 1.809 L 71.793 10.433 C 68.59 6.91 64.713 4.289 60.164 2.573 C 55.614 0.858 50.879 0 45.959 0 C 36.674 0 28.585 1.948 21.691 5.842 C 14.797 9.737 9.459 15.196 5.675 22.221 C 1.891 29.245 0 37.441 0 46.806 C 0 56.17 1.799 64.02 5.397 71.044 C 8.994 78.069 14.333 83.575 21.413 87.562 C 28.491 91.551 37.231 93.544 47.63 93.544 C 58.739 93.544 66.731 90.134 72.455 85.569 C 72.99 86.914 73.582 88.225 74.235 89.5 C 77.832 96.525 83.17 102.031 90.251 106.018 C 97.329 110.007 106.068 112 116.467 112 C 123.198 112 129.617 111.153 135.721 109.461 C 141.825 107.769 147.639 104.721 153.164 100.316 L 154 81.259 L 143.903 79.311 L 143.904 79.313 Z M 71.788 84.736 C 65.346 89.873 57.218 92.477 47.631 92.477 C 37.464 92.477 28.821 90.511 21.939 86.634 C 15.077 82.769 9.832 77.362 6.35 70.56 C 2.847 63.721 1.07 55.73 1.07 46.809 C 1.07 37.887 2.937 29.562 6.618 22.729 C 10.286 15.918 15.535 10.55 22.219 6.775 C 28.918 2.99 36.905 1.071 45.96 1.071 C 50.725 1.071 55.377 1.914 59.787 3.575 C 64.155 5.223 67.927 7.772 71.002 11.153 L 72.574 12.883 L 72.855 10.563 L 73.785 2.879 L 82.283 2.879 L 82.283 28.422 L 74.151 28.422 C 73.44 22.573 70.874 17.813 66.515 14.266 C 61.952 10.554 55.762 8.67 48.118 8.67 C 41.673 8.67 35.998 10.201 31.25 13.219 C 26.495 16.241 22.788 20.656 20.23 26.34 C 17.695 31.971 16.41 38.787 16.41 46.6 C 16.41 54.413 17.695 61.241 20.229 66.892 C 22.786 72.6 26.505 77.049 31.28 80.116 C 36.052 83.183 41.741 84.737 48.187 84.737 C 55.693 84.737 63.206 82.464 70.519 77.981 C 76.577 74.268 81.199 69.841 84.025 66.76 C 82.395 71.534 78.87 79.088 71.788 84.735 L 71.788 84.736 Z" fill="currentColor" fill-rule="nonzero"></path>
</svg>