<svg xmlns="http://www.w3.org/2000/svg" width="63.479" height="17.546" viewBox="0 0 63.479 17.546" fill="none">
  <path d="M 8.61 0 L 8.61 -0.5 L 8.61 -0.5 L 8.61 0 Z M 11.271 0.483 L 11.448 0.016 L 11.448 0.016 L 11.271 0.483 Z M 13.45 1.957 L 13.08 2.293 L 13.815 3.103 L 13.947 2.017 L 13.45 1.957 Z M 13.646 0.34 L 13.646 -0.16 L 13.202 -0.16 L 13.149 0.28 L 13.646 0.34 Z M 15.615 0.34 L 16.115 0.34 L 16.115 -0.16 L 15.615 -0.16 L 15.615 0.34 Z M 15.615 5.531 L 15.615 6.031 L 16.115 6.031 L 16.115 5.531 L 15.615 5.531 Z M 13.711 5.531 L 13.213 5.573 L 13.251 6.031 L 13.711 6.031 L 13.711 5.531 Z M 12.328 2.831 L 12.011 3.218 L 12.013 3.219 L 12.328 2.831 Z M 9.015 1.827 L 9.015 1.327 L 9.015 1.327 L 9.015 1.827 Z M 5.962 2.648 L 5.693 2.227 L 5.693 2.227 L 5.962 2.648 Z M 3.966 5.022 L 3.511 4.816 L 3.509 4.819 L 3.966 5.022 Z M 3.274 8.74 L 2.774 8.74 L 2.774 8.74 L 3.274 8.74 Z M 3.966 12.472 L 3.508 12.674 L 3.511 12.678 L 3.966 12.472 Z M 5.962 14.859 L 5.69 15.279 L 5.692 15.281 L 5.962 14.859 Z M 9.027 15.694 L 9.027 16.194 L 9.027 16.194 L 9.027 15.694 Z M 12.745 14.78 L 13.04 15.184 L 13.04 15.184 L 12.745 14.78 Z M 14.063 11.415 L 14.157 10.924 L 13.575 10.812 L 13.563 11.404 L 14.063 11.415 Z M 15.954 11.78 L 16.454 11.802 L 16.472 11.371 L 16.049 11.289 L 15.954 11.78 Z M 15.798 15.354 L 16.11 15.745 L 16.287 15.603 L 16.297 15.376 L 15.798 15.354 Z M 12.523 17.077 L 12.656 17.559 L 12.658 17.559 L 12.523 17.077 Z M 8.923 17.546 L 8.923 18.046 L 8.923 18.046 L 8.923 17.546 Z M 4.005 16.425 L 3.759 16.86 L 3.76 16.861 L 4.005 16.425 Z M 1.005 13.333 L 0.559 13.559 L 0.561 13.563 L 1.005 13.333 Z M 0 8.78 L -0.5 8.78 L -0.5 8.78 L 0 8.78 Z M 1.057 4.175 L 0.617 3.937 L 0.616 3.938 L 1.057 4.175 Z M 4.057 1.096 L 3.811 0.66 L 3.81 0.661 L 4.057 1.096 Z M 57.777 5.231 L 57.777 4.731 L 57.777 4.731 L 57.777 5.231 Z M 59.839 5.519 L 59.696 5.998 L 59.698 5.998 L 59.839 5.519 Z M 61.392 6.405 L 61.03 6.751 L 61.657 7.406 L 61.877 6.526 L 61.392 6.405 Z M 61.456 6.132 L 60.976 5.991 L 60.972 6.004 L 60.969 6.017 L 61.456 6.132 Z M 61.574 5.701 L 61.095 5.56 L 61.092 5.57 L 61.089 5.58 L 61.574 5.701 Z M 61.639 5.479 L 61.682 4.981 L 61.274 4.946 L 61.159 5.338 L 61.639 5.479 Z M 61.913 5.505 L 61.866 6.003 L 61.877 6.004 L 61.889 6.004 L 61.913 5.505 Z M 62.5 5.531 L 62.479 6.031 L 62.479 6.031 L 62.5 5.531 Z M 62.943 5.558 L 63.443 5.558 L 63.443 5.105 L 62.993 5.06 L 62.943 5.558 Z M 62.943 9.093 L 62.943 9.593 L 63.443 9.593 L 63.443 9.093 L 62.943 9.093 Z M 61.443 9.093 L 60.945 9.137 L 60.985 9.593 L 61.443 9.593 L 61.443 9.093 Z M 60.53 7.253 L 60.213 7.639 L 60.216 7.642 L 60.53 7.253 Z M 58.286 6.575 L 58.291 6.075 L 58.286 6.075 L 58.286 6.575 Z M 56.486 7.084 L 56.159 6.706 L 56.155 6.71 L 56.486 7.084 Z M 55.912 8.258 L 55.412 8.258 L 55.412 8.258 L 55.912 8.258 Z M 56.708 9.406 L 56.481 9.852 L 56.481 9.852 L 56.708 9.406 Z M 58.821 10.176 L 58.688 10.658 L 58.695 10.66 L 58.821 10.176 Z M 61.313 10.997 L 61.117 11.457 L 61.119 11.458 L 61.313 10.997 Z M 62.918 12.146 L 62.523 12.453 L 62.53 12.46 L 62.918 12.146 Z M 63.479 13.972 L 63.979 13.972 L 63.979 13.972 L 63.479 13.972 Z M 62.853 15.929 L 63.243 16.241 L 63.243 16.241 L 62.853 15.929 Z M 61.144 17.103 L 61.314 17.573 L 61.314 17.573 L 61.144 17.103 Z M 58.69 17.494 L 58.69 17.994 L 58.69 17.994 L 58.69 17.494 Z M 56.447 17.168 L 56.271 17.636 L 56.279 17.639 L 56.447 17.168 Z M 54.973 16.15 L 55.354 15.827 L 54.598 14.934 L 54.475 16.098 L 54.973 16.15 Z M 54.868 17.142 L 54.868 17.642 L 55.318 17.642 L 55.365 17.194 L 54.868 17.142 Z M 54.099 17.129 L 54.116 16.629 L 54.116 16.629 L 54.099 17.129 Z M 53.316 17.115 L 52.816 17.115 L 52.816 17.615 L 53.316 17.615 L 53.316 17.115 Z M 53.316 13.372 L 53.316 12.872 L 52.816 12.872 L 52.816 13.372 L 53.316 13.372 Z M 54.947 13.372 L 55.447 13.353 L 55.429 12.872 L 54.947 12.872 L 54.947 13.372 Z M 55.899 15.472 L 55.588 15.863 L 55.591 15.865 L 55.899 15.472 Z M 58.273 16.177 L 58.273 16.677 L 58.273 16.677 L 58.273 16.177 Z M 60.217 15.707 L 60.48 16.132 L 60.486 16.129 L 60.217 15.707 Z M 60.974 14.415 L 61.474 14.415 L 61.474 14.415 L 60.974 14.415 Z M 60.438 13.397 L 60.138 13.798 L 60.15 13.806 L 60.438 13.397 Z M 59.056 12.72 L 58.891 13.192 L 58.898 13.194 L 59.056 12.72 Z M 57.19 12.119 L 57.035 12.595 L 57.047 12.598 L 57.19 12.119 Z M 55.143 11.298 L 54.908 11.739 L 54.916 11.744 L 55.143 11.298 Z M 53.877 10.215 L 53.462 10.494 L 53.462 10.494 L 53.877 10.215 Z M 53.446 8.597 L 52.946 8.597 L 52.946 8.597 L 53.446 8.597 Z M 54.607 6.184 L 54.29 5.797 L 54.29 5.797 L 54.607 6.184 Z M 22.281 1.409 L 21.781 1.409 L 21.781 1.419 L 22.281 1.409 Z M 22.294 2.883 L 22.794 2.883 L 22.794 2.883 L 22.294 2.883 Z M 22.294 7.11 L 21.794 7.11 L 21.794 8.366 L 22.657 7.454 L 22.294 7.11 Z M 24.382 5.662 L 24.194 5.199 L 24.194 5.199 L 24.382 5.662 Z M 26.926 5.192 L 26.926 4.692 L 26.926 4.692 L 26.926 5.192 Z M 29.391 5.845 L 29.086 6.241 L 29.089 6.243 L 29.391 5.845 Z M 30.565 7.827 L 30.079 7.942 L 30.08 7.947 L 30.565 7.827 Z M 31.27 15.615 L 31.121 16.093 L 31.131 16.096 L 31.141 16.098 L 31.27 15.615 Z M 32.665 15.72 L 33.165 15.72 L 33.165 15.22 L 32.665 15.22 L 32.665 15.72 Z M 32.665 17.22 L 32.665 17.72 L 33.165 17.72 L 33.165 17.22 L 32.665 17.22 Z M 31.218 17.22 L 31.209 17.72 L 31.218 17.72 L 31.218 17.22 Z M 29.509 17.194 L 29.515 16.694 L 29.509 16.694 L 29.509 17.194 Z M 27.761 17.207 L 27.752 16.707 L 27.752 16.707 L 27.761 17.207 Z M 26.26 17.22 L 25.76 17.22 L 25.76 17.72 L 26.26 17.72 L 26.26 17.22 Z M 26.26 15.72 L 26.254 15.22 L 25.76 15.226 L 25.76 15.72 L 26.26 15.72 Z M 27.734 15.524 L 27.958 15.972 L 27.97 15.965 L 27.734 15.524 Z M 27.656 7.762 L 27.208 7.983 L 27.21 7.988 L 27.656 7.762 Z M 25.816 6.888 L 25.816 6.388 L 25.816 6.388 L 25.816 6.888 Z M 24.16 7.253 L 24.384 7.7 L 24.39 7.697 L 24.16 7.253 Z M 22.985 8.141 L 22.61 7.811 L 22.61 7.811 L 22.985 8.141 Z M 22.294 9.224 L 21.83 9.036 L 21.794 9.126 L 21.794 9.224 L 22.294 9.224 Z M 22.294 15.094 L 21.794 15.094 L 21.794 15.094 L 22.294 15.094 Z M 22.699 15.642 L 22.604 16.132 L 22.607 16.133 L 22.699 15.642 Z M 24.212 15.72 L 24.712 15.72 L 24.712 15.22 L 24.212 15.22 L 24.212 15.72 Z M 24.212 17.22 L 24.212 17.72 L 24.712 17.72 L 24.712 17.22 L 24.212 17.22 Z M 22.581 17.22 L 22.573 17.72 L 22.581 17.72 L 22.581 17.22 Z M 20.689 17.194 L 20.695 16.694 L 20.689 16.694 L 20.689 17.194 Z M 19.033 17.207 L 19.024 16.707 L 19.024 16.707 L 19.033 17.207 Z M 17.585 17.22 L 17.085 17.22 L 17.085 17.72 L 17.585 17.72 L 17.585 17.22 Z M 17.585 15.72 L 17.585 15.22 L 17.085 15.22 L 17.085 15.72 L 17.585 15.72 Z M 18.916 15.668 L 18.98 16.164 L 18.988 16.163 L 18.996 16.162 L 18.916 15.668 Z M 19.411 15.446 L 18.985 15.184 L 18.98 15.193 L 19.411 15.446 Z M 19.516 2.361 L 20.016 2.361 L 20.016 2.361 L 19.516 2.361 Z M 19.163 1.879 L 19.021 2.358 L 19.029 2.361 L 19.038 2.363 L 19.163 1.879 Z M 18.237 1.762 L 18.249 1.262 L 18.237 1.262 L 18.237 1.762 Z M 17.663 1.762 L 17.163 1.762 L 17.163 2.262 L 17.663 2.262 L 17.663 1.762 Z M 17.663 0.287 L 17.663 -0.213 L 17.163 -0.213 L 17.163 0.287 L 17.663 0.287 Z M 20.781 0.274 L 20.79 0.774 L 20.79 0.774 L 20.781 0.274 Z M 22.281 0.222 L 22.781 0.222 L 22.781 -0.304 L 22.256 -0.278 L 22.281 0.222 Z M 42.724 5.219 L 42.724 4.719 L 42.724 4.719 L 42.724 5.219 Z M 43.924 5.297 L 44.424 5.297 L 44.424 4.855 L 43.986 4.801 L 43.924 5.297 Z M 43.924 8.506 L 43.924 9.006 L 44.424 9.006 L 44.424 8.506 L 43.924 8.506 Z M 43.401 8.506 L 43.401 8.006 L 43.401 8.006 L 43.401 8.506 Z M 42.893 8.519 L 42.424 8.692 L 42.552 9.038 L 42.92 9.018 L 42.893 8.519 Z M 42.306 7.593 L 42.639 7.22 L 42.639 7.22 L 42.306 7.593 Z M 41.302 7.267 L 41.302 6.767 L 41.302 6.767 L 41.302 7.267 Z M 39.345 8.323 L 39.747 8.62 L 39.749 8.618 L 39.345 8.323 Z M 38.51 11.05 L 38.985 11.205 L 39.007 11.139 L 39.009 11.069 L 38.51 11.05 Z M 38.483 11.467 L 37.984 11.45 L 37.983 11.458 L 37.983 11.467 L 38.483 11.467 Z M 38.471 12.394 L 37.971 12.382 L 37.971 12.394 L 38.471 12.394 Z M 38.471 14.95 L 37.971 14.95 L 37.971 14.95 L 38.471 14.95 Z M 38.927 15.642 L 38.828 16.132 L 38.836 16.133 L 38.845 16.135 L 38.927 15.642 Z M 40.61 15.72 L 41.11 15.72 L 41.11 15.22 L 40.61 15.22 L 40.61 15.72 Z M 40.61 17.22 L 40.61 17.72 L 41.11 17.72 L 41.11 17.22 L 40.61 17.22 Z M 38.862 17.207 L 38.855 17.707 L 38.855 17.707 L 38.862 17.207 Z M 36.801 17.194 L 36.801 16.694 L 36.801 16.694 L 36.801 17.194 Z M 35.131 17.207 L 35.121 16.707 L 35.121 16.707 L 35.131 17.207 Z M 33.722 17.22 L 33.222 17.22 L 33.222 17.72 L 33.722 17.72 L 33.722 17.22 Z M 33.722 15.72 L 33.722 15.22 L 33.222 15.22 L 33.222 15.72 L 33.722 15.72 Z M 35.092 15.654 L 35.012 15.161 L 35.01 15.161 L 35.092 15.654 Z M 35.574 15.394 L 35.116 15.193 L 35.113 15.2 L 35.11 15.208 L 35.574 15.394 Z M 35.666 7.605 L 36.166 7.605 L 36.166 7.605 L 35.666 7.605 Z M 35.287 7.031 L 35.183 7.52 L 35.186 7.521 L 35.287 7.031 Z M 33.787 6.953 L 33.287 6.953 L 33.287 7.453 L 33.787 7.453 L 33.787 6.953 Z M 33.787 5.492 L 33.787 4.992 L 33.287 4.992 L 33.287 5.492 L 33.787 5.492 Z M 34.466 5.492 L 34.466 4.992 L 34.466 4.992 L 34.466 5.492 Z M 35.327 5.505 L 35.31 6.005 L 35.319 6.005 L 35.327 6.005 L 35.327 5.505 Z M 36.996 5.479 L 37.016 5.979 L 37.016 5.979 L 36.996 5.479 Z M 38.327 5.44 L 38.827 5.44 L 38.827 4.931 L 38.318 4.941 L 38.327 5.44 Z M 38.327 7.854 L 37.827 7.854 L 38.776 8.073 L 38.327 7.854 Z M 40.049 5.91 L 39.786 5.484 L 39.784 5.486 L 40.049 5.91 Z M 49.716 14.794 L 49.216 14.794 L 49.216 14.794 L 49.716 14.794 Z M 50.107 15.589 L 49.935 16.058 L 49.942 16.061 L 49.949 16.063 L 50.107 15.589 Z M 51.529 15.72 L 52.029 15.72 L 52.029 15.22 L 51.529 15.22 L 51.529 15.72 Z M 51.529 17.22 L 51.529 17.72 L 52.029 17.72 L 52.029 17.22 L 51.529 17.22 Z M 50.59 17.22 L 50.578 17.72 L 50.59 17.72 L 50.59 17.22 Z M 49.455 17.207 L 49.455 16.707 L 49.455 16.707 L 49.455 17.207 Z M 48.411 17.207 L 48.397 17.707 L 48.404 17.707 L 48.411 17.707 L 48.411 17.207 Z M 47.771 17.194 L 47.771 16.694 L 47.771 16.694 L 47.771 17.194 Z M 46.35 17.207 L 46.36 17.707 L 46.36 17.707 L 46.35 17.207 Z M 45.098 17.22 L 44.598 17.22 L 44.598 17.72 L 45.098 17.72 L 45.098 17.22 Z M 45.098 15.72 L 45.098 15.22 L 44.598 15.22 L 44.598 15.72 L 45.098 15.72 Z M 46.35 15.654 L 46.435 16.147 L 46.443 16.146 L 46.451 16.144 L 46.35 15.654 Z M 46.819 15.381 L 46.372 15.157 L 46.366 15.169 L 46.819 15.381 Z M 46.924 14.755 L 47.424 14.755 L 47.424 14.755 L 46.924 14.755 Z M 46.52 7.031 L 46.599 6.538 L 46.599 6.538 L 46.52 7.031 Z M 45.163 6.953 L 44.663 6.953 L 44.663 7.446 L 45.156 7.453 L 45.163 6.953 Z M 45.163 5.492 L 45.163 4.992 L 44.663 4.992 L 44.663 5.492 L 45.163 5.492 Z M 47.185 5.479 L 47.185 4.979 L 47.171 4.98 L 47.185 5.479 Z M 48.438 5.466 L 48.427 4.966 L 48.427 4.966 L 48.438 5.466 Z M 49.716 5.427 L 50.216 5.427 L 50.216 4.906 L 49.696 4.927 L 49.716 5.427 Z M 48.216 0.17 L 48.216 -0.33 L 48.216 -0.33 L 48.216 0.17 Z M 49.232 0.562 L 48.873 0.909 L 48.879 0.915 L 48.885 0.921 L 49.232 0.562 Z M 49.624 1.565 L 50.124 1.565 L 50.124 1.565 L 49.624 1.565 Z M 49.232 2.557 L 48.879 2.203 L 48.873 2.209 L 49.232 2.557 Z M 48.229 2.948 L 48.229 3.448 L 48.229 3.448 L 48.229 2.948 Z M 47.185 2.557 L 46.825 2.904 L 46.831 2.91 L 46.837 2.916 L 47.185 2.557 Z M 46.793 1.553 L 46.293 1.553 L 46.293 1.553 L 46.793 1.553 Z M 47.185 0.562 L 47.532 0.921 L 47.532 0.921 L 47.185 0.562 Z M 8.61 0 L 8.61 0.5 C 9.472 0.5 10.3 0.651 11.095 0.951 L 11.271 0.483 L 11.448 0.016 C 10.539 -0.328 9.592 -0.5 8.61 -0.5 L 8.61 0 Z M 11.271 0.483 L 11.095 0.951 C 11.875 1.246 12.534 1.692 13.08 2.293 L 13.45 1.957 L 13.82 1.621 C 13.166 0.9 12.372 0.365 11.448 0.016 L 11.271 0.483 Z M 13.45 1.957 L 13.947 2.017 L 14.142 0.4 L 13.646 0.34 L 13.149 0.28 L 12.954 1.897 L 13.45 1.957 Z M 13.646 0.34 L 13.646 0.84 L 15.615 0.84 L 15.615 0.34 L 15.615 -0.16 L 13.646 -0.16 L 13.646 0.34 Z M 15.615 0.34 L 15.115 0.34 L 15.115 5.531 L 15.615 5.531 L 16.115 5.531 L 16.115 0.34 L 15.615 0.34 Z M 15.615 5.531 L 15.615 5.031 L 13.711 5.031 L 13.711 5.531 L 13.711 6.031 L 15.615 6.031 L 15.615 5.531 Z M 13.711 5.531 L 14.209 5.489 C 14.103 4.233 13.582 3.204 12.643 2.443 L 12.328 2.831 L 12.013 3.219 C 12.726 3.797 13.128 4.568 13.213 5.573 L 13.711 5.531 Z M 12.328 2.831 L 12.645 2.444 C 11.713 1.681 10.484 1.327 9.015 1.327 L 9.015 1.827 L 9.015 2.327 C 10.328 2.327 11.308 2.642 12.011 3.218 L 12.328 2.831 Z M 9.015 1.827 L 9.015 1.327 C 7.76 1.327 6.646 1.62 5.693 2.227 L 5.962 2.648 L 6.23 3.07 C 6.999 2.581 7.921 2.327 9.015 2.327 L 9.015 1.827 Z M 5.962 2.648 L 5.693 2.227 C 4.742 2.832 4.016 3.703 3.511 4.816 L 3.966 5.022 L 4.421 5.229 C 4.855 4.272 5.46 3.56 6.23 3.07 L 5.962 2.648 Z M 3.966 5.022 L 3.509 4.819 C 3.013 5.933 2.774 7.245 2.774 8.74 L 3.274 8.74 L 3.774 8.74 C 3.774 7.348 3.997 6.182 4.423 5.226 L 3.966 5.022 Z M 3.274 8.74 L 2.774 8.74 C 2.774 10.236 3.013 11.552 3.508 12.674 L 3.966 12.472 L 4.423 12.27 C 3.997 11.304 3.774 10.132 3.774 8.74 L 3.274 8.74 Z M 3.966 12.472 L 3.511 12.678 C 4.015 13.791 4.74 14.665 5.69 15.279 L 5.962 14.859 L 6.233 14.439 C 5.461 13.94 4.856 13.223 4.421 12.265 L 3.966 12.472 Z M 5.962 14.859 L 5.692 15.281 C 6.653 15.895 7.771 16.194 9.027 16.194 L 9.027 15.694 L 9.027 15.194 C 7.936 15.194 7.01 14.936 6.231 14.438 L 5.962 14.859 Z M 9.027 15.694 L 9.027 16.194 C 10.719 16.194 12.082 15.882 13.04 15.184 L 12.745 14.78 L 12.451 14.376 C 11.738 14.896 10.623 15.194 9.027 15.194 L 9.027 15.694 Z M 12.745 14.78 L 13.04 15.184 C 14.067 14.432 14.526 13.12 14.562 11.426 L 14.063 11.415 L 13.563 11.404 C 13.529 12.963 13.111 13.893 12.45 14.377 L 12.745 14.78 Z M 14.063 11.415 L 13.968 11.906 L 15.859 12.271 L 15.954 11.78 L 16.049 11.289 L 14.157 10.924 L 14.063 11.415 Z M 15.954 11.78 L 15.455 11.758 L 15.298 15.333 L 15.798 15.354 L 16.297 15.376 L 16.454 11.802 L 15.954 11.78 Z M 15.798 15.354 L 15.486 14.964 C 14.497 15.753 13.465 16.294 12.388 16.596 L 12.523 17.077 L 12.658 17.559 C 13.878 17.217 15.028 16.608 16.11 15.745 L 15.798 15.354 Z M 12.523 17.077 L 12.391 16.595 C 11.298 16.895 10.142 17.046 8.923 17.046 L 8.923 17.546 L 8.923 18.046 C 10.225 18.046 11.471 17.885 12.656 17.559 L 12.523 17.077 Z M 8.923 17.546 L 8.923 17.046 C 7.037 17.046 5.488 16.685 4.25 15.989 L 4.005 16.425 L 3.76 16.861 C 5.183 17.661 6.912 18.046 8.923 18.046 L 8.923 17.546 Z M 4.005 16.425 L 4.251 15.99 C 3.012 15.288 2.082 14.328 1.449 13.104 L 1.005 13.333 L 0.561 13.563 C 1.285 14.964 2.355 16.066 3.759 16.86 L 4.005 16.425 Z M 1.005 13.333 L 1.451 13.107 C 0.822 11.865 0.5 10.427 0.5 8.78 L 0 8.78 L -0.5 8.78 C -0.5 10.56 -0.151 12.157 0.559 13.559 L 1.005 13.333 Z M 0 8.78 L 0.5 8.78 C 0.5 7.091 0.838 5.64 1.497 4.411 L 1.057 4.175 L 0.616 3.938 C -0.134 5.336 -0.5 6.956 -0.5 8.78 L 0 8.78 Z M 1.057 4.175 L 1.497 4.412 C 2.166 3.172 3.099 2.214 4.303 1.531 L 4.057 1.096 L 3.81 0.661 C 2.44 1.439 1.374 2.534 0.617 3.937 L 1.057 4.175 Z M 4.057 1.096 L 4.302 1.531 C 5.511 0.85 6.942 0.5 8.61 0.5 L 8.61 0 L 8.61 -0.5 C 6.8 -0.5 5.194 -0.119 3.811 0.66 L 4.057 1.096 Z M 57.777 5.231 L 57.777 5.731 C 58.464 5.731 59.103 5.821 59.696 5.998 L 59.839 5.519 L 59.981 5.039 C 59.288 4.833 58.552 4.731 57.777 4.731 L 57.777 5.231 Z M 59.839 5.519 L 59.698 5.998 C 60.286 6.171 60.721 6.427 61.03 6.751 L 61.392 6.405 L 61.753 6.06 C 61.297 5.583 60.697 5.249 59.98 5.039 L 59.839 5.519 Z M 61.392 6.405 L 61.877 6.526 C 61.887 6.487 61.909 6.388 61.943 6.246 L 61.456 6.132 L 60.969 6.017 C 60.933 6.17 60.914 6.254 60.907 6.284 L 61.392 6.405 Z M 61.456 6.132 L 61.936 6.273 C 61.981 6.121 62.022 5.97 62.059 5.822 L 61.574 5.701 L 61.089 5.58 C 61.056 5.711 61.019 5.847 60.976 5.991 L 61.456 6.132 Z M 61.574 5.701 L 62.054 5.842 C 62.075 5.771 62.091 5.716 62.102 5.678 C 62.107 5.659 62.111 5.645 62.114 5.635 C 62.118 5.622 62.119 5.62 62.118 5.621 L 61.639 5.479 L 61.159 5.338 C 61.158 5.342 61.151 5.368 61.141 5.401 C 61.131 5.437 61.115 5.49 61.095 5.56 L 61.574 5.701 Z M 61.639 5.479 C 61.595 5.978 61.595 5.978 61.595 5.978 C 61.595 5.978 61.595 5.978 61.595 5.978 C 61.595 5.978 61.595 5.978 61.595 5.978 C 61.595 5.978 61.595 5.978 61.595 5.978 C 61.595 5.978 61.595 5.978 61.595 5.978 C 61.596 5.978 61.596 5.978 61.596 5.978 C 61.597 5.978 61.598 5.978 61.599 5.978 C 61.602 5.978 61.606 5.979 61.611 5.979 C 61.623 5.98 61.639 5.982 61.662 5.984 C 61.707 5.988 61.775 5.994 61.866 6.003 L 61.913 5.505 L 61.96 5.007 C 61.869 4.998 61.799 4.992 61.753 4.988 C 61.73 4.986 61.712 4.984 61.7 4.983 C 61.694 4.982 61.69 4.982 61.687 4.982 C 61.685 4.982 61.684 4.982 61.683 4.981 C 61.683 4.981 61.683 4.981 61.682 4.981 C 61.682 4.981 61.682 4.981 61.682 4.981 C 61.682 4.981 61.682 4.981 61.682 4.981 C 61.682 4.981 61.682 4.981 61.682 4.981 C 61.682 4.981 61.682 4.981 61.682 4.981 C 61.682 4.981 61.682 4.981 61.639 5.479 Z M 61.913 5.505 L 61.889 6.004 C 62.073 6.013 62.269 6.022 62.479 6.031 L 62.5 5.531 L 62.521 5.032 C 62.313 5.023 62.119 5.014 61.937 5.005 L 61.913 5.505 Z M 62.5 5.531 L 62.479 6.031 C 62.687 6.039 62.822 6.048 62.894 6.055 L 62.943 5.558 L 62.993 5.06 C 62.891 5.05 62.73 5.04 62.521 5.032 L 62.5 5.531 Z M 62.943 5.558 L 62.443 5.558 L 62.443 9.093 L 62.943 9.093 L 63.443 9.093 L 63.443 5.558 L 62.943 5.558 Z M 62.943 9.093 L 62.943 8.593 L 61.443 8.593 L 61.443 9.093 L 61.443 9.593 L 62.943 9.593 L 62.943 9.093 Z M 61.443 9.093 L 61.941 9.049 C 61.862 8.144 61.505 7.397 60.844 6.864 L 60.53 7.253 L 60.216 7.642 C 60.634 7.979 60.886 8.459 60.945 9.137 L 61.443 9.093 Z M 60.53 7.253 L 60.848 6.867 C 60.192 6.328 59.319 6.085 58.291 6.075 L 58.286 6.575 L 58.282 7.075 C 59.166 7.083 59.79 7.291 60.213 7.639 L 60.53 7.253 Z M 58.286 6.575 L 58.286 6.075 C 57.421 6.075 56.68 6.254 56.159 6.706 L 56.486 7.084 L 56.814 7.462 C 57.075 7.235 57.533 7.075 58.286 7.075 L 58.286 6.575 Z M 56.486 7.084 L 56.155 6.71 C 55.683 7.128 55.412 7.648 55.412 8.258 L 55.912 8.258 L 56.412 8.258 C 56.412 7.98 56.524 7.719 56.818 7.458 L 56.486 7.084 Z M 55.912 8.258 L 55.412 8.258 C 55.412 8.601 55.506 8.921 55.7 9.202 C 55.891 9.477 56.162 9.69 56.481 9.852 L 56.708 9.406 L 56.935 8.961 C 56.723 8.853 56.596 8.739 56.522 8.632 C 56.451 8.53 56.412 8.411 56.412 8.258 L 55.912 8.258 Z M 56.708 9.406 L 56.481 9.852 C 57.053 10.142 57.792 10.409 58.688 10.658 L 58.821 10.176 L 58.955 9.694 C 58.094 9.455 57.424 9.209 56.935 8.96 L 56.708 9.406 Z M 58.821 10.176 L 58.695 10.66 C 59.644 10.907 60.45 11.174 61.117 11.457 L 61.313 10.997 L 61.508 10.537 C 60.784 10.229 59.929 9.948 58.948 9.692 L 58.821 10.176 Z M 61.313 10.997 L 61.119 11.458 C 61.766 11.73 62.224 12.067 62.523 12.452 L 62.918 12.146 L 63.313 11.839 C 62.882 11.284 62.268 10.856 61.506 10.536 L 61.313 10.997 Z M 62.918 12.146 L 62.53 12.46 C 62.813 12.81 62.979 13.298 62.979 13.972 L 63.479 13.972 L 63.979 13.972 C 63.979 13.133 63.77 12.403 63.306 11.831 L 62.918 12.146 Z M 63.479 13.972 L 62.979 13.972 C 62.979 14.661 62.797 15.198 62.462 15.616 L 62.853 15.929 L 63.243 16.241 C 63.743 15.616 63.979 14.847 63.979 13.972 L 63.479 13.972 Z M 62.853 15.929 L 62.462 15.616 C 62.11 16.056 61.622 16.398 60.974 16.632 L 61.144 17.103 L 61.314 17.573 C 62.109 17.285 62.76 16.845 63.243 16.241 L 62.853 15.929 Z M 61.144 17.103 L 60.974 16.632 C 60.315 16.87 59.556 16.994 58.69 16.994 L 58.69 17.494 L 58.69 17.994 C 59.651 17.994 60.528 17.857 61.314 17.573 L 61.144 17.103 Z M 58.69 17.494 L 58.69 16.994 C 57.841 16.994 57.154 16.889 56.615 16.697 L 56.447 17.168 L 56.279 17.639 C 56.958 17.881 57.766 17.994 58.69 17.994 L 58.69 17.494 Z M 56.447 17.168 L 56.624 16.7 C 56.096 16.501 55.677 16.209 55.354 15.827 L 54.973 16.15 L 54.591 16.473 C 55.033 16.996 55.598 17.382 56.271 17.636 L 56.447 17.168 Z M 54.973 16.15 L 54.475 16.098 L 54.371 17.089 L 54.868 17.142 L 55.365 17.194 L 55.47 16.203 L 54.973 16.15 Z M 54.868 17.142 L 54.868 16.642 C 54.612 16.642 54.362 16.638 54.116 16.629 L 54.099 17.129 L 54.081 17.629 C 54.34 17.638 54.602 17.642 54.868 17.642 L 54.868 17.142 Z M 54.099 17.129 L 54.116 16.629 C 53.859 16.62 53.592 16.615 53.316 16.615 L 53.316 17.115 L 53.316 17.615 C 53.58 17.615 53.835 17.62 54.081 17.629 L 54.099 17.129 Z M 53.316 17.115 L 53.816 17.115 L 53.816 13.372 L 53.316 13.372 L 52.816 13.372 L 52.816 17.115 L 53.316 17.115 Z M 53.316 13.372 L 53.316 13.872 L 54.947 13.872 L 54.947 13.372 L 54.947 12.872 L 53.316 12.872 L 53.316 13.372 Z M 54.947 13.372 L 54.448 13.391 C 54.487 14.426 54.851 15.275 55.588 15.863 L 55.899 15.472 L 56.211 15.081 C 55.748 14.712 55.478 14.162 55.447 13.353 L 54.947 13.372 Z M 55.899 15.472 L 55.591 15.865 C 56.302 16.421 57.211 16.677 58.273 16.677 L 58.273 16.177 L 58.273 15.677 C 57.37 15.677 56.697 15.461 56.208 15.078 L 55.899 15.472 Z M 58.273 16.177 L 58.273 16.677 C 59.128 16.677 59.875 16.508 60.48 16.132 L 60.217 15.707 L 59.953 15.282 C 59.55 15.532 59.001 15.677 58.273 15.677 L 58.273 16.177 Z M 60.217 15.707 L 60.486 16.129 C 61.115 15.727 61.474 15.146 61.474 14.415 L 60.974 14.415 L 60.474 14.415 C 60.474 14.762 60.327 15.044 59.948 15.285 L 60.217 15.707 Z M 60.974 14.415 L 61.474 14.415 C 61.474 13.822 61.212 13.332 60.727 12.989 L 60.438 13.397 L 60.15 13.806 C 60.378 13.967 60.474 14.156 60.474 14.415 L 60.974 14.415 Z M 60.438 13.397 L 60.738 12.997 C 60.334 12.694 59.82 12.447 59.214 12.245 L 59.056 12.72 L 58.898 13.194 C 59.439 13.375 59.847 13.579 60.139 13.798 L 60.438 13.397 Z M 59.056 12.72 L 59.22 12.248 C 58.638 12.045 58.01 11.842 57.334 11.64 L 57.19 12.119 L 57.047 12.598 C 57.71 12.796 58.325 12.995 58.891 13.192 L 59.056 12.72 Z M 57.19 12.119 L 57.345 11.644 C 56.562 11.388 55.905 11.124 55.369 10.852 L 55.143 11.298 L 54.916 11.744 C 55.511 12.045 56.219 12.328 57.035 12.595 L 57.19 12.119 Z M 55.143 11.298 L 55.377 10.856 C 54.877 10.59 54.524 10.28 54.292 9.936 L 53.877 10.215 L 53.462 10.494 C 53.804 11.002 54.295 11.414 54.908 11.739 L 55.143 11.298 Z M 53.877 10.215 L 54.292 9.936 C 54.074 9.612 53.946 9.176 53.946 8.597 L 53.446 8.597 L 52.946 8.597 C 52.946 9.322 53.106 9.966 53.462 10.494 L 53.877 10.215 Z M 53.446 8.597 L 53.946 8.597 C 53.946 7.777 54.263 7.113 54.925 6.57 L 54.607 6.184 L 54.29 5.797 C 53.404 6.524 52.946 7.468 52.946 8.597 L 53.446 8.597 Z M 54.607 6.184 L 54.925 6.57 C 55.583 6.03 56.515 5.731 57.777 5.731 L 57.777 5.231 L 57.777 4.731 C 56.362 4.732 55.18 5.067 54.29 5.797 L 54.607 6.184 Z M 22.281 1.409 L 21.781 1.419 C 21.79 1.876 21.794 2.364 21.794 2.883 L 22.294 2.883 L 22.794 2.883 C 22.794 2.359 22.79 1.864 22.781 1.4 L 22.281 1.409 Z M 22.294 2.883 L 21.794 2.883 L 21.794 7.11 L 22.294 7.11 L 22.794 7.11 L 22.794 2.883 L 22.294 2.883 Z M 22.294 7.11 L 22.657 7.454 C 23.229 6.85 23.867 6.41 24.569 6.126 L 24.382 5.662 L 24.194 5.199 C 23.349 5.541 22.594 6.066 21.931 6.767 L 22.294 7.11 Z M 24.382 5.662 L 24.569 6.126 C 25.278 5.839 26.062 5.692 26.926 5.692 L 26.926 5.192 L 26.926 4.692 C 25.946 4.692 25.034 4.859 24.194 5.199 L 24.382 5.662 Z M 26.926 5.192 L 26.926 5.692 C 27.947 5.692 28.643 5.9 29.086 6.241 L 29.391 5.845 L 29.695 5.448 C 29.008 4.92 28.061 4.692 26.926 4.692 L 26.926 5.192 Z M 29.391 5.845 L 29.089 6.243 C 29.548 6.591 29.89 7.138 30.079 7.942 L 30.565 7.827 L 31.052 7.713 C 30.824 6.743 30.381 5.968 29.693 5.446 L 29.391 5.845 Z M 30.565 7.827 L 30.08 7.947 C 30.284 8.772 30.392 9.842 30.392 11.167 L 30.892 11.167 L 31.392 11.167 C 31.392 9.796 31.281 8.639 31.051 7.707 L 30.565 7.827 Z M 30.892 11.167 L 30.392 11.167 L 30.392 14.819 L 30.892 14.819 L 31.392 14.819 L 31.392 11.167 L 30.892 11.167 Z M 30.892 14.819 L 30.392 14.819 C 30.392 15.312 30.529 15.909 31.121 16.093 L 31.27 15.615 L 31.418 15.138 C 31.422 15.139 31.432 15.144 31.44 15.151 C 31.448 15.158 31.445 15.159 31.438 15.143 C 31.419 15.104 31.392 15.008 31.392 14.819 L 30.892 14.819 Z M 31.27 15.615 L 31.141 16.098 C 31.472 16.187 31.997 16.22 32.665 16.22 L 32.665 15.72 L 32.665 15.22 C 31.994 15.22 31.589 15.183 31.398 15.132 L 31.27 15.615 Z M 32.665 15.72 L 32.165 15.72 L 32.165 17.22 L 32.665 17.22 L 33.165 17.22 L 33.165 15.72 L 32.665 15.72 Z M 32.665 17.22 L 32.665 16.72 L 31.218 16.72 L 31.218 17.22 L 31.218 17.72 L 32.665 17.72 L 32.665 17.22 Z M 31.218 17.22 L 31.227 16.72 C 30.756 16.711 30.185 16.703 29.515 16.694 L 29.509 17.194 L 29.502 17.694 C 30.172 17.703 30.74 17.711 31.209 17.72 L 31.218 17.22 Z M 29.509 17.194 L 29.509 16.694 C 28.846 16.694 28.26 16.698 27.752 16.707 L 27.761 17.207 L 27.769 17.707 C 28.27 17.698 28.85 17.694 29.509 17.694 L 29.509 17.194 Z M 27.761 17.207 L 27.752 16.707 C 27.259 16.716 26.762 16.72 26.26 16.72 L 26.26 17.22 L 26.26 17.72 C 26.767 17.72 27.271 17.716 27.77 17.707 L 27.761 17.207 Z M 26.26 17.22 L 26.76 17.22 L 26.76 15.72 L 26.26 15.72 L 25.76 15.72 L 25.76 17.22 L 26.26 17.22 Z M 26.26 15.72 L 26.266 16.22 C 26.646 16.215 26.976 16.196 27.249 16.16 C 27.512 16.125 27.761 16.07 27.958 15.972 L 27.734 15.524 L 27.511 15.077 C 27.464 15.101 27.346 15.139 27.117 15.169 C 26.898 15.198 26.612 15.216 26.254 15.22 L 26.26 15.72 Z M 27.734 15.524 L 27.97 15.965 C 28.417 15.726 28.6 15.292 28.6 14.819 L 28.1 14.819 L 27.6 14.819 C 27.6 15.025 27.539 15.062 27.498 15.084 L 27.734 15.524 Z M 28.1 14.819 L 28.6 14.819 L 28.6 10.358 L 28.1 10.358 L 27.6 10.358 L 27.6 14.819 L 28.1 14.819 Z M 28.1 10.358 L 28.6 10.358 C 28.6 9.183 28.451 8.223 28.102 7.535 L 27.656 7.762 L 27.21 7.988 C 27.453 8.466 27.6 9.238 27.6 10.358 L 28.1 10.358 Z M 27.656 7.762 L 28.105 7.541 C 27.698 6.715 26.849 6.388 25.816 6.388 L 25.816 6.888 L 25.816 7.388 C 26.662 7.388 27.04 7.643 27.208 7.983 L 27.656 7.762 Z M 25.816 6.888 L 25.816 6.388 C 25.118 6.388 24.483 6.522 23.93 6.809 L 24.16 7.253 L 24.39 7.697 C 24.776 7.497 25.246 7.388 25.816 7.388 L 25.816 6.888 Z M 24.16 7.253 L 23.937 6.806 C 23.415 7.066 22.97 7.401 22.61 7.811 L 22.985 8.141 L 23.361 8.471 C 23.627 8.167 23.966 7.909 24.384 7.7 L 24.16 7.253 Z M 22.985 8.141 L 22.61 7.811 C 22.267 8.201 22.003 8.61 21.83 9.036 L 22.294 9.224 L 22.757 9.411 C 22.88 9.107 23.078 8.793 23.361 8.47 L 22.985 8.141 Z M 22.294 9.224 L 21.794 9.224 L 21.794 15.094 L 22.294 15.094 L 22.794 15.094 L 22.794 9.224 L 22.294 9.224 Z M 22.294 15.094 L 21.794 15.094 C 21.794 15.318 21.842 15.559 21.994 15.763 C 22.151 15.975 22.374 16.088 22.604 16.132 L 22.699 15.642 L 22.794 15.151 C 22.772 15.146 22.768 15.142 22.773 15.145 C 22.78 15.149 22.789 15.157 22.797 15.168 C 22.805 15.178 22.804 15.182 22.802 15.172 C 22.799 15.161 22.794 15.137 22.794 15.094 L 22.294 15.094 Z M 22.699 15.642 L 22.607 16.133 C 22.937 16.195 23.484 16.22 24.212 16.22 L 24.212 15.72 L 24.212 15.22 C 23.479 15.22 23.018 15.193 22.791 15.15 L 22.699 15.642 Z M 24.212 15.72 L 23.712 15.72 L 23.712 17.22 L 24.212 17.22 L 24.712 17.22 L 24.712 15.72 L 24.212 15.72 Z M 24.212 17.22 L 24.212 16.72 L 22.581 16.72 L 22.581 17.22 L 22.581 17.72 L 24.212 17.72 L 24.212 17.22 Z M 22.581 17.22 L 22.589 16.72 C 22.066 16.711 21.434 16.703 20.695 16.694 L 20.689 17.194 L 20.684 17.694 C 21.423 17.703 22.052 17.711 22.573 17.72 L 22.581 17.22 Z M 20.689 17.194 L 20.689 16.694 C 20.053 16.694 19.498 16.698 19.024 16.707 L 19.033 17.207 L 19.042 17.707 C 19.508 17.698 20.057 17.694 20.689 17.694 L 20.689 17.194 Z M 19.033 17.207 L 19.024 16.707 C 18.558 16.716 18.078 16.72 17.585 16.72 L 17.585 17.22 L 17.585 17.72 C 18.083 17.72 18.569 17.716 19.042 17.707 L 19.033 17.207 Z M 17.585 17.22 L 18.085 17.22 L 18.085 15.72 L 17.585 15.72 L 17.085 15.72 L 17.085 17.22 L 17.585 17.22 Z M 17.585 15.72 L 17.585 16.22 C 18.203 16.22 18.676 16.203 18.98 16.164 L 18.916 15.668 L 18.852 15.172 C 18.617 15.202 18.201 15.22 17.585 15.22 L 17.585 15.72 Z M 18.916 15.668 L 18.996 16.162 C 19.154 16.136 19.309 16.097 19.446 16.036 C 19.579 15.977 19.739 15.875 19.842 15.699 L 19.411 15.446 L 18.98 15.193 C 19.002 15.156 19.025 15.135 19.036 15.126 C 19.047 15.117 19.05 15.118 19.037 15.124 C 19.009 15.136 18.947 15.156 18.836 15.174 L 18.916 15.668 Z M 19.411 15.446 L 19.837 15.708 C 19.975 15.483 20.016 15.216 20.016 14.963 L 19.516 14.963 L 19.016 14.963 C 19.016 15.041 19.009 15.097 19.001 15.135 C 18.992 15.173 18.984 15.186 18.985 15.184 L 19.411 15.446 Z M 19.516 14.963 L 20.016 14.963 L 20.016 2.361 L 19.516 2.361 L 19.016 2.361 L 19.016 14.963 L 19.516 14.963 Z M 19.516 2.361 L 20.016 2.361 C 20.016 2.157 19.969 1.939 19.831 1.75 C 19.69 1.557 19.492 1.448 19.289 1.395 L 19.163 1.879 L 19.038 2.363 C 19.055 2.367 19.057 2.37 19.051 2.367 C 19.048 2.365 19.044 2.361 19.038 2.357 C 19.033 2.352 19.028 2.346 19.024 2.34 C 19.019 2.334 19.016 2.329 19.014 2.325 C 19.012 2.32 19.012 2.318 19.012 2.319 C 19.012 2.32 19.016 2.333 19.016 2.361 L 19.516 2.361 Z M 19.163 1.879 L 19.305 1.399 C 19.011 1.312 18.653 1.271 18.249 1.262 L 18.237 1.762 L 18.226 2.262 C 18.586 2.27 18.846 2.306 19.021 2.358 L 19.163 1.879 Z M 18.237 1.762 L 18.237 1.262 L 17.663 1.262 L 17.663 1.762 L 17.663 2.262 L 18.237 2.262 L 18.237 1.762 Z M 17.663 1.762 L 18.163 1.762 L 18.163 0.287 L 17.663 0.287 L 17.163 0.287 L 17.163 1.762 L 17.663 1.762 Z M 17.663 0.287 L 17.663 0.787 L 19.346 0.787 L 19.346 0.287 L 19.346 -0.213 L 17.663 -0.213 L 17.663 0.287 Z M 19.346 0.287 L 19.346 0.787 C 19.818 0.787 20.3 0.783 20.79 0.774 L 20.781 0.274 L 20.772 -0.226 C 20.288 -0.217 19.813 -0.213 19.346 -0.213 L 19.346 0.287 Z M 20.781 0.274 L 20.79 0.774 C 21.283 0.766 21.789 0.747 22.307 0.721 L 22.281 0.222 L 22.256 -0.278 C 21.748 -0.252 21.253 -0.234 20.772 -0.226 L 20.781 0.274 Z M 22.281 0.222 L 21.781 0.222 L 21.781 1.409 L 22.281 1.409 L 22.781 1.409 L 22.781 0.222 L 22.281 0.222 Z M 42.724 5.219 L 42.724 5.719 C 43.084 5.719 43.463 5.743 43.862 5.793 L 43.924 5.297 L 43.986 4.801 C 43.55 4.746 43.129 4.719 42.724 4.719 L 42.724 5.219 Z M 43.924 5.297 L 43.424 5.297 L 43.424 8.506 L 43.924 8.506 L 44.424 8.506 L 44.424 5.297 L 43.924 5.297 Z M 43.924 8.506 L 43.924 8.006 L 43.401 8.006 L 43.401 8.506 L 43.401 9.006 L 43.924 9.006 L 43.924 8.506 Z M 43.401 8.506 L 43.401 8.006 C 43.212 8.006 43.033 8.01 42.865 8.019 L 42.893 8.519 L 42.92 9.018 C 43.066 9.01 43.226 9.006 43.401 9.006 L 43.401 8.506 Z M 42.893 8.519 L 43.362 8.345 C 43.194 7.891 42.959 7.506 42.639 7.22 L 42.306 7.593 L 41.973 7.966 C 42.139 8.115 42.296 8.346 42.424 8.692 L 42.893 8.519 Z M 42.306 7.593 L 42.639 7.22 C 42.279 6.898 41.812 6.767 41.302 6.767 L 41.302 7.267 L 41.302 7.767 C 41.643 7.767 41.846 7.853 41.973 7.966 L 42.306 7.593 Z M 41.302 7.267 L 41.302 6.767 C 40.333 6.767 39.537 7.21 38.941 8.029 L 39.345 8.323 L 39.749 8.618 C 40.179 8.027 40.688 7.767 41.302 7.767 L 41.302 7.267 Z M 39.345 8.323 L 38.942 8.026 C 38.354 8.824 38.056 9.838 38.01 11.03 L 38.51 11.05 L 39.009 11.069 C 39.05 10.018 39.309 9.214 39.747 8.62 L 39.345 8.323 Z M 38.51 11.05 L 38.034 10.895 C 38.013 10.96 38.007 11.026 38.006 11.038 C 38.003 11.069 38 11.104 37.998 11.142 C 37.993 11.219 37.988 11.322 37.984 11.45 L 38.483 11.467 L 38.983 11.484 C 38.987 11.36 38.992 11.268 38.996 11.206 C 38.998 11.174 38.999 11.154 39 11.144 C 39.001 11.138 39.001 11.139 39 11.144 C 39 11.147 38.999 11.153 38.997 11.161 C 38.995 11.168 38.992 11.184 38.985 11.205 L 38.51 11.05 Z M 38.483 11.467 L 37.983 11.467 C 37.983 11.714 37.979 12.019 37.971 12.382 L 38.471 12.394 L 38.971 12.405 C 38.979 12.037 38.983 11.724 38.983 11.467 L 38.483 11.467 Z M 38.471 12.394 L 37.971 12.394 L 37.971 14.95 L 38.471 14.95 L 38.971 14.95 L 38.971 12.394 L 38.471 12.394 Z M 38.471 14.95 L 37.971 14.95 C 37.971 15.206 38.018 15.472 38.167 15.698 C 38.326 15.939 38.563 16.079 38.828 16.132 L 38.927 15.642 L 39.025 15.151 C 39.001 15.147 38.994 15.141 38.997 15.143 C 39 15.145 39.002 15.148 39.002 15.148 C 38.999 15.143 38.971 15.094 38.971 14.95 L 38.471 14.95 Z M 38.927 15.642 L 38.845 16.135 C 39.203 16.195 39.804 16.22 40.61 16.22 L 40.61 15.72 L 40.61 15.22 C 39.8 15.22 39.276 15.193 39.009 15.148 L 38.927 15.642 Z M 40.61 15.72 L 40.11 15.72 L 40.11 17.22 L 40.61 17.22 L 41.11 17.22 L 41.11 15.72 L 40.61 15.72 Z M 40.61 17.22 L 40.61 16.72 C 40.021 16.72 39.441 16.716 38.87 16.707 L 38.862 17.207 L 38.855 17.707 C 39.431 17.716 40.017 17.72 40.61 17.72 L 40.61 17.22 Z M 38.862 17.207 L 38.87 16.707 C 38.292 16.698 37.602 16.694 36.801 16.694 L 36.801 17.194 L 36.801 17.694 C 37.599 17.694 38.284 17.698 38.855 17.707 L 38.862 17.207 Z M 36.801 17.194 L 36.801 16.694 C 36.138 16.694 35.578 16.698 35.121 16.707 L 35.131 17.207 L 35.14 17.707 C 35.588 17.698 36.141 17.694 36.801 17.694 L 36.801 17.194 Z M 35.131 17.207 L 35.121 16.707 C 34.681 16.716 34.215 16.72 33.722 16.72 L 33.722 17.22 L 33.722 17.72 C 34.22 17.72 34.693 17.716 35.141 17.707 L 35.131 17.207 Z M 33.722 17.22 L 34.222 17.22 L 34.222 15.72 L 33.722 15.72 L 33.222 15.72 L 33.222 17.22 L 33.722 17.22 Z M 33.722 15.72 L 33.722 16.22 C 34.373 16.22 34.868 16.199 35.174 16.147 L 35.092 15.654 L 35.01 15.161 C 34.794 15.197 34.375 15.22 33.722 15.22 L 33.722 15.72 Z M 35.092 15.654 L 35.171 16.148 C 35.458 16.102 35.878 15.98 36.038 15.579 L 35.574 15.394 L 35.11 15.208 C 35.123 15.174 35.142 15.149 35.158 15.133 C 35.172 15.118 35.181 15.114 35.177 15.117 C 35.172 15.119 35.157 15.126 35.129 15.135 C 35.1 15.144 35.062 15.153 35.012 15.161 L 35.092 15.654 Z M 35.574 15.394 L 36.032 15.594 C 36.134 15.361 36.166 15.075 36.166 14.78 L 35.666 14.78 L 35.166 14.78 C 35.166 15.025 35.136 15.148 35.116 15.193 L 35.574 15.394 Z M 35.666 14.78 L 36.166 14.78 L 36.166 7.605 L 35.666 7.605 L 35.166 7.605 L 35.166 14.78 L 35.666 14.78 Z M 35.666 7.605 L 36.166 7.605 C 36.166 7.383 36.124 7.144 35.988 6.939 C 35.843 6.719 35.627 6.591 35.388 6.542 L 35.287 7.031 L 35.186 7.521 C 35.197 7.523 35.193 7.524 35.182 7.517 C 35.17 7.509 35.16 7.499 35.154 7.489 C 35.149 7.482 35.152 7.483 35.156 7.502 C 35.161 7.521 35.166 7.554 35.166 7.606 L 35.666 7.605 Z M 35.287 7.031 L 35.392 6.542 C 35.087 6.477 34.534 6.453 33.787 6.453 L 33.787 6.953 L 33.787 7.453 C 34.553 7.453 34.999 7.481 35.183 7.52 L 35.287 7.031 Z M 33.787 6.953 L 34.287 6.953 L 34.287 5.492 L 33.787 5.492 L 33.287 5.492 L 33.287 6.953 L 33.787 6.953 Z M 33.787 5.492 L 33.787 5.992 L 34.466 5.992 L 34.466 5.492 L 34.466 4.992 L 33.787 4.992 L 33.787 5.492 Z M 34.466 5.492 L 34.466 5.992 C 34.775 5.992 35.056 5.996 35.31 6.005 L 35.327 5.505 L 35.344 5.005 C 35.076 4.996 34.783 4.992 34.466 4.992 L 34.466 5.492 Z M 35.327 5.505 L 35.327 6.005 L 35.718 6.005 L 35.718 5.505 L 35.718 5.005 L 35.327 5.005 L 35.327 5.505 Z M 35.718 5.505 L 35.718 6.005 C 36.141 6.005 36.574 5.997 37.016 5.979 L 36.996 5.479 L 36.976 4.98 C 36.548 4.997 36.129 5.005 35.718 5.005 L 35.718 5.505 Z M 36.996 5.479 L 37.016 5.979 C 37.447 5.962 37.888 5.949 38.337 5.94 L 38.327 5.44 L 38.318 4.941 C 37.862 4.949 37.415 4.962 36.976 4.98 L 36.996 5.479 Z M 38.327 5.44 L 37.827 5.44 L 37.827 7.854 L 38.327 7.854 L 38.827 7.854 L 38.827 5.44 L 38.327 5.44 Z M 38.327 7.854 L 38.776 8.073 C 39.147 7.317 39.659 6.742 40.313 6.334 L 40.049 5.91 L 39.784 5.486 C 38.96 6 38.325 6.721 37.878 7.634 L 38.327 7.854 Z M 40.049 5.91 L 40.311 6.336 C 40.967 5.932 41.765 5.719 42.724 5.719 L 42.724 5.219 L 42.724 4.719 C 41.613 4.719 40.626 4.967 39.787 5.484 L 40.049 5.91 Z M 49.716 14.794 L 49.216 14.794 C 49.216 15.302 49.375 15.853 49.935 16.058 L 50.107 15.589 L 50.28 15.119 C 50.273 15.117 50.273 15.116 50.275 15.118 C 50.276 15.119 50.271 15.114 50.262 15.097 C 50.243 15.058 50.216 14.968 50.216 14.794 L 49.716 14.794 Z M 50.107 15.589 L 49.949 16.063 C 50.296 16.179 50.845 16.22 51.529 16.22 L 51.529 15.72 L 51.529 15.22 C 50.84 15.22 50.441 15.173 50.265 15.114 L 50.107 15.589 Z M 51.529 15.72 L 51.029 15.72 L 51.029 17.22 L 51.529 17.22 L 52.029 17.22 L 52.029 15.72 L 51.529 15.72 Z M 51.529 17.22 L 51.529 16.72 L 50.59 16.72 L 50.59 17.22 L 50.59 17.72 L 51.529 17.72 L 51.529 17.22 Z M 50.59 17.22 L 50.602 16.72 C 50.232 16.711 49.85 16.707 49.455 16.707 L 49.455 17.207 L 49.455 17.707 C 49.843 17.707 50.217 17.711 50.578 17.72 L 50.59 17.22 Z M 49.455 17.207 L 49.455 16.707 L 48.411 16.707 L 48.411 17.207 L 48.411 17.707 L 49.455 17.707 L 49.455 17.207 Z M 48.411 17.207 L 48.425 16.707 C 48.12 16.699 47.901 16.694 47.771 16.694 L 47.771 17.194 L 47.771 17.694 C 47.886 17.694 48.093 17.698 48.397 17.707 L 48.411 17.207 Z M 47.771 17.194 L 47.771 16.694 C 47.23 16.694 46.752 16.698 46.339 16.707 L 46.35 17.207 L 46.36 17.707 C 46.764 17.698 47.235 17.694 47.771 17.694 L 47.771 17.194 Z M 46.35 17.207 L 46.339 16.707 C 45.934 16.716 45.521 16.72 45.098 16.72 L 45.098 17.22 L 45.098 17.72 C 45.527 17.72 45.948 17.716 46.36 17.707 L 46.35 17.207 Z M 45.098 17.22 L 45.598 17.22 L 45.598 15.72 L 45.098 15.72 L 44.598 15.72 L 44.598 17.22 L 45.098 17.22 Z M 45.098 15.72 L 45.098 16.22 C 45.682 16.22 46.137 16.198 46.435 16.147 L 46.35 15.654 L 46.265 15.162 C 46.058 15.197 45.678 15.22 45.098 15.22 L 45.098 15.72 Z M 46.35 15.654 L 46.451 16.144 C 46.74 16.084 47.106 15.948 47.272 15.593 L 46.819 15.381 L 46.366 15.169 C 46.389 15.12 46.418 15.107 46.405 15.115 C 46.388 15.124 46.342 15.145 46.248 15.165 L 46.35 15.654 Z M 46.819 15.381 L 47.267 15.604 C 47.388 15.361 47.424 15.059 47.424 14.755 L 46.924 14.755 L 46.424 14.755 C 46.424 15.007 46.389 15.123 46.372 15.157 L 46.819 15.381 Z M 46.924 14.755 L 47.424 14.755 L 47.424 7.527 L 46.924 7.527 L 46.424 7.527 L 46.424 14.755 L 46.924 14.755 Z M 46.924 7.527 L 47.424 7.527 C 47.424 7.309 47.372 7.071 47.21 6.872 C 47.046 6.67 46.82 6.573 46.599 6.538 L 46.52 7.031 L 46.44 7.525 C 46.465 7.529 46.472 7.533 46.467 7.531 C 46.464 7.53 46.459 7.527 46.453 7.522 C 46.447 7.517 46.441 7.511 46.435 7.504 C 46.429 7.497 46.425 7.49 46.423 7.485 C 46.42 7.48 46.419 7.477 46.419 7.478 C 46.42 7.479 46.424 7.494 46.424 7.527 L 46.924 7.527 Z M 46.52 7.031 L 46.599 6.538 C 46.29 6.488 45.805 6.462 45.17 6.453 L 45.163 6.953 L 45.156 7.453 C 45.79 7.462 46.21 7.488 46.44 7.525 L 46.52 7.031 Z M 45.163 6.953 L 45.663 6.953 L 45.663 5.492 L 45.163 5.492 L 44.663 5.492 L 44.663 6.953 L 45.163 6.953 Z M 45.163 5.492 L 45.163 5.992 L 46.206 5.992 L 46.206 5.492 L 46.206 4.992 L 45.163 4.992 L 45.163 5.492 Z M 46.206 5.492 L 46.206 5.992 C 46.549 5.992 46.88 5.988 47.198 5.979 L 47.185 5.479 L 47.171 4.98 C 46.863 4.988 46.541 4.992 46.206 4.992 L 46.206 5.492 Z M 47.185 5.479 L 47.185 5.979 C 47.615 5.979 48.036 5.974 48.448 5.966 L 48.438 5.466 L 48.427 4.966 C 48.021 4.975 47.607 4.979 47.185 4.979 L 47.185 5.479 Z M 48.438 5.466 L 48.448 5.966 C 48.869 5.957 49.298 5.944 49.736 5.926 L 49.716 5.427 L 49.696 4.927 C 49.264 4.944 48.841 4.957 48.427 4.966 L 48.438 5.466 Z M 49.716 5.427 L 49.216 5.427 L 49.216 14.794 L 49.716 14.794 L 50.216 14.794 L 50.216 5.427 L 49.716 5.427 Z M 48.216 0.17 L 48.216 0.67 C 48.531 0.67 48.731 0.762 48.873 0.909 L 49.232 0.562 L 49.592 0.214 C 49.229 -0.161 48.752 -0.33 48.216 -0.33 L 48.216 0.17 Z M 49.232 0.562 L 48.885 0.921 C 49.034 1.065 49.124 1.262 49.124 1.565 L 49.624 1.565 L 50.124 1.565 C 50.124 1.034 49.953 0.563 49.58 0.202 L 49.232 0.562 Z M 49.624 1.565 L 49.124 1.565 C 49.124 1.845 49.038 2.044 48.879 2.203 L 49.232 2.557 L 49.586 2.91 C 49.949 2.547 50.124 2.086 50.124 1.565 L 49.624 1.565 Z M 49.232 2.557 L 48.873 2.209 C 48.729 2.358 48.532 2.448 48.228 2.448 L 48.229 2.948 L 48.229 3.448 C 48.76 3.448 49.231 3.277 49.592 2.904 L 49.232 2.557 Z M 48.229 2.948 L 48.229 2.448 C 47.913 2.448 47.696 2.356 47.532 2.197 L 47.185 2.557 L 46.837 2.916 C 47.213 3.279 47.692 3.448 48.229 3.448 L 48.229 2.948 Z M 47.185 2.557 L 47.544 2.209 C 47.379 2.039 47.293 1.832 47.293 1.553 L 46.793 1.553 L 46.293 1.553 C 46.293 2.073 46.468 2.535 46.825 2.904 L 47.185 2.557 Z M 46.793 1.553 L 47.293 1.553 C 47.293 1.261 47.381 1.067 47.532 0.921 L 47.185 0.562 L 46.837 0.202 C 46.466 0.561 46.293 1.027 46.293 1.553 L 46.793 1.553 Z M 47.185 0.562 L 47.532 0.921 C 47.698 0.761 47.912 0.67 48.216 0.67 L 48.216 0.17 L 48.216 -0.33 C 47.685 -0.33 47.211 -0.159 46.837 0.202 L 47.185 0.562 Z" fill="currentColor" fill-rule="nonzero"></path>
</svg>