<svg xmlns="http://www.w3.org/2000/svg" width="68.750" height="50" viewBox="0 0 68.750 50" fill="none">
  <path d="M 64.243 35.408 C 64.16 39.278 63.119 41.943 61.118 43.403 C 59.118 44.862 56.16 45.592 52.243 45.592 C 49.445 45.592 47.015 44.929 44.954 43.604 C 42.891 42.28 41.306 40.381 40.198 37.907 C 39.089 35.434 38.534 32.479 38.534 29.043 C 38.534 28.635 38.542 28.234 38.558 27.841 L 38.541 27.834 C 38.541 27.834 35.792 31.611 31.232 34.407 C 28.553 36.049 25.251 37.352 21.512 37.352 C 18.714 37.352 16.284 36.69 14.222 35.365 C 12.16 34.041 10.575 32.141 9.466 29.668 C 8.357 27.194 7.803 24.24 7.803 20.803 C 7.803 17.367 8.357 14.418 9.466 11.954 C 10.575 9.491 12.155 7.608 14.207 6.303 C 16.259 4.999 18.683 4.347 21.481 4.347 C 24.797 4.347 27.434 5.144 29.393 6.738 C 31.352 8.332 32.444 10.474 32.672 13.165 L 37.143 13.165 C 35.591 14.56 34.298 16.215 33.265 18.131 C 32.092 20.31 31.327 22.741 30.969 25.424 C 35.33 18.417 43.284 13.363 50.216 12.677 C 55.072 12.197 58.165 13.356 60.124 14.949 C 62.082 16.543 63.175 18.685 63.403 21.376 L 67.942 21.376 L 67.942 9.019 L 63.248 9.019 L 62.782 12.869 C 61.352 11.296 59.621 10.126 57.59 9.36 C 55.559 8.595 53.445 8.211 51.249 8.211 C 47.103 8.211 43.492 9.081 40.415 10.819 C 39.246 11.48 38.179 12.241 37.21 13.102 L 37.21 0.807 L 32.516 0.807 L 32.05 4.657 C 30.62 3.085 28.89 1.915 26.859 1.149 C 24.828 0.383 22.714 0 20.517 0 C 16.372 0 12.761 0.869 9.684 2.608 C 6.606 4.347 4.223 6.784 2.534 9.92 C 0.844 13.056 0 16.715 0 20.895 C 0 25.076 0.803 28.58 2.409 31.716 C 4.015 34.852 6.398 37.31 9.559 39.09 C 12.719 40.871 16.621 41.761 21.263 41.761 C 26.223 41.761 29.79 40.238 32.346 38.2 C 32.585 38.801 32.849 39.386 33.141 39.956 C 34.746 43.091 37.13 45.55 40.29 47.33 C 43.451 49.11 47.352 50 51.994 50 C 54.999 50 57.865 49.622 60.59 48.867 C 63.315 48.111 65.91 46.751 68.377 44.784 L 68.75 36.276 L 64.242 35.407 L 64.243 35.408 Z M 32.048 37.829 C 29.172 40.122 25.544 41.284 21.264 41.284 C 16.725 41.284 12.866 40.407 9.794 38.676 C 6.731 36.951 4.389 34.537 2.835 31.5 C 1.271 28.447 0.478 24.879 0.478 20.897 C 0.478 16.914 1.311 13.197 2.955 10.147 C 4.592 7.106 6.935 4.71 9.919 3.024 C 12.91 1.335 16.475 0.478 20.518 0.478 C 22.645 0.478 24.722 0.854 26.69 1.596 C 28.641 2.332 30.325 3.47 31.697 4.979 L 32.399 5.751 L 32.525 4.715 L 32.94 1.285 L 36.733 1.285 L 36.733 12.688 L 33.103 12.688 C 32.786 10.077 31.64 7.952 29.694 6.369 C 27.657 4.711 24.894 3.871 21.481 3.871 C 18.604 3.871 16.071 4.554 13.951 5.901 C 11.828 7.25 10.173 9.221 9.031 11.759 C 7.9 14.273 7.326 17.316 7.326 20.803 C 7.326 24.291 7.9 27.34 9.031 29.862 C 10.172 32.411 11.833 34.397 13.964 35.766 C 16.095 37.135 18.634 37.829 21.512 37.829 C 24.863 37.829 28.217 36.814 31.482 34.813 C 34.186 33.155 36.249 31.179 37.511 29.804 C 36.783 31.935 35.21 35.307 32.048 37.828 L 32.048 37.829 Z" fill="currentColor" fill-rule="nonzero"></path>
</svg>