<svg xmlns="http://www.w3.org/2000/svg" width="142.192" height="39.304" viewBox="0 0 142.192 39.304" fill="none">
  <path d="M 19.286 0 L 19.286 -0.5 L 19.286 -0.5 L 19.286 0 Z M 25.247 1.081 L 25.424 0.613 L 25.424 0.613 L 25.247 1.081 Z M 30.127 4.384 L 29.757 4.72 L 30.492 5.53 L 30.623 4.444 L 30.127 4.384 Z M 30.565 0.76 L 30.565 0.26 L 30.122 0.26 L 30.069 0.7 L 30.565 0.76 Z M 34.979 0.76 L 35.479 0.76 L 35.479 0.26 L 34.979 0.26 L 34.979 0.76 Z M 34.979 12.391 L 34.979 12.891 L 35.479 12.891 L 35.479 12.391 L 34.979 12.391 Z M 30.712 12.391 L 30.214 12.433 L 30.252 12.891 L 30.712 12.891 L 30.712 12.391 Z M 27.614 6.342 L 27.297 6.729 L 27.299 6.73 L 27.614 6.342 Z M 20.192 4.092 L 20.192 3.592 L 20.192 3.592 L 20.192 4.092 Z M 13.354 5.933 L 13.086 5.511 L 13.086 5.511 L 13.354 5.933 Z M 8.884 11.251 L 8.428 11.044 L 8.427 11.048 L 8.884 11.251 Z M 7.335 19.579 L 6.835 19.579 L 6.835 19.579 L 7.335 19.579 Z M 8.884 27.937 L 8.426 28.139 L 8.428 28.143 L 8.884 27.937 Z M 13.354 33.283 L 13.083 33.703 L 13.085 33.704 L 13.354 33.283 Z M 20.222 35.154 L 20.222 35.654 L 20.222 35.654 L 20.222 35.154 Z M 28.55 33.108 L 28.844 33.512 L 28.845 33.512 L 28.55 33.108 Z M 31.501 25.569 L 31.596 25.078 L 31.014 24.966 L 31.001 25.559 L 31.501 25.569 Z M 35.738 26.388 L 36.238 26.41 L 36.257 25.979 L 35.833 25.897 L 35.738 26.388 Z M 35.388 34.395 L 35.7 34.785 L 35.877 34.643 L 35.887 34.416 L 35.388 34.395 Z M 28.053 38.251 L 28.185 38.733 L 28.188 38.732 L 28.053 38.251 Z M 19.987 39.304 L 19.987 39.804 L 19.987 39.804 L 19.987 39.304 Z M 8.971 36.79 L 8.724 37.225 L 8.726 37.226 L 8.971 36.79 Z M 2.25 29.864 L 1.804 30.09 L 1.806 30.094 L 2.25 29.864 Z M 0 19.666 L -0.5 19.666 L -0.5 19.666 L 0 19.666 Z M 2.367 9.352 L 1.927 9.114 L 1.927 9.115 L 2.367 9.352 Z M 9.088 2.455 L 8.842 2.02 L 8.841 2.02 L 9.088 2.455 Z M 129.422 11.718 L 129.422 11.218 L 129.422 11.218 L 129.422 11.718 Z M 134.039 12.361 L 133.897 12.841 L 133.898 12.841 L 134.039 12.361 Z M 137.517 14.348 L 137.155 14.693 L 137.782 15.348 L 138.002 14.469 L 137.517 14.348 Z M 137.663 13.734 L 137.183 13.593 L 137.18 13.606 L 137.176 13.62 L 137.663 13.734 Z M 137.926 12.771 L 137.446 12.629 L 137.443 12.639 L 137.441 12.649 L 137.926 12.771 Z M 138.071 12.273 L 138.119 11.776 L 137.708 11.736 L 137.592 12.132 L 138.071 12.273 Z M 138.686 12.332 L 138.638 12.83 L 138.65 12.831 L 138.662 12.831 L 138.686 12.332 Z M 140 12.391 L 139.979 12.89 L 139.979 12.89 L 140 12.391 Z M 140.994 12.448 L 141.494 12.448 L 141.494 11.996 L 141.044 11.951 L 140.994 12.448 Z M 140.994 20.368 L 140.994 20.868 L 141.494 20.868 L 141.494 20.368 L 140.994 20.368 Z M 137.634 20.368 L 137.136 20.412 L 137.176 20.868 L 137.634 20.868 L 137.634 20.368 Z M 135.588 16.247 L 135.27 16.633 L 135.274 16.636 L 135.588 16.247 Z M 130.562 14.728 L 130.566 14.228 L 130.562 14.228 L 130.562 14.728 Z M 126.529 15.867 L 126.202 15.489 L 126.198 15.493 L 126.529 15.867 Z M 125.243 18.498 L 124.743 18.498 L 124.743 18.498 L 125.243 18.498 Z M 127.026 21.069 L 126.8 21.515 L 126.8 21.515 L 127.026 21.069 Z M 131.76 22.793 L 131.626 23.275 L 131.633 23.277 L 131.76 22.793 Z M 137.341 24.634 L 137.145 25.094 L 137.147 25.095 L 137.341 24.634 Z M 140.936 27.206 L 140.541 27.513 L 140.547 27.521 L 140.936 27.206 Z M 142.192 31.297 L 142.692 31.297 L 142.692 31.297 L 142.192 31.297 Z M 140.789 35.68 L 141.179 35.992 L 141.18 35.992 L 140.789 35.68 Z M 136.961 38.31 L 137.131 38.78 L 137.131 38.78 L 136.961 38.31 Z M 131.468 39.187 L 131.468 39.687 L 131.468 39.687 L 131.468 39.187 Z M 126.441 38.456 L 126.265 38.924 L 126.273 38.927 L 126.441 38.456 Z M 123.14 36.177 L 123.521 35.854 L 122.765 34.96 L 122.642 36.124 L 123.14 36.177 Z M 122.905 38.397 L 122.905 38.897 L 123.355 38.897 L 123.403 38.45 L 122.905 38.397 Z M 121.182 38.368 L 121.199 37.868 L 121.199 37.868 L 121.182 38.368 Z M 119.429 38.339 L 118.929 38.339 L 118.929 38.839 L 119.429 38.839 L 119.429 38.339 Z M 119.429 29.952 L 119.429 29.452 L 118.929 29.452 L 118.929 29.952 L 119.429 29.952 Z M 123.081 29.952 L 123.581 29.933 L 123.563 29.452 L 123.081 29.452 L 123.081 29.952 Z M 125.214 34.657 L 124.902 35.048 L 124.906 35.051 L 125.214 34.657 Z M 130.532 36.235 L 130.532 36.735 L 130.532 36.735 L 130.532 36.235 Z M 134.887 35.183 L 135.15 35.607 L 135.156 35.604 L 134.887 35.183 Z M 136.581 32.29 L 137.081 32.29 L 137.081 32.29 L 136.581 32.29 Z M 135.384 30.011 L 135.084 30.411 L 135.095 30.419 L 135.384 30.011 Z M 132.286 28.491 L 132.122 28.963 L 132.128 28.966 L 132.286 28.491 Z M 128.107 27.147 L 127.952 27.623 L 127.964 27.627 L 128.107 27.147 Z M 123.52 25.307 L 123.285 25.748 L 123.293 25.752 L 123.52 25.307 Z M 120.685 22.881 L 120.27 23.16 L 120.27 23.16 L 120.685 22.881 Z M 119.721 19.257 L 119.221 19.257 L 119.221 19.257 L 119.721 19.257 Z M 122.321 13.852 L 122.004 13.465 L 122.004 13.465 L 122.321 13.852 Z M 49.91 3.156 L 49.41 3.156 L 49.41 3.166 L 49.91 3.156 Z M 49.939 6.458 L 50.439 6.458 L 50.439 6.458 L 49.939 6.458 Z M 49.939 15.926 L 49.439 15.926 L 49.439 17.181 L 50.303 16.27 L 49.939 15.926 Z M 54.615 12.683 L 54.428 12.219 L 54.428 12.219 L 54.615 12.683 Z M 60.313 11.631 L 60.313 11.131 L 60.313 11.131 L 60.313 11.631 Z M 65.836 13.092 L 65.531 13.488 L 65.534 13.49 L 65.836 13.092 Z M 68.466 17.533 L 67.979 17.648 L 67.98 17.653 L 68.466 17.533 Z M 69.196 25.014 L 69.696 25.014 L 69.696 25.014 L 69.196 25.014 Z M 69.196 33.196 L 68.696 33.196 L 68.696 33.196 L 69.196 33.196 Z M 70.044 34.979 L 69.896 35.456 L 69.905 35.459 L 69.915 35.462 L 70.044 34.979 Z M 73.171 35.212 L 73.671 35.212 L 73.671 34.712 L 73.171 34.712 L 73.171 35.212 Z M 73.171 38.573 L 73.171 39.073 L 73.671 39.073 L 73.671 38.573 L 73.171 38.573 Z M 69.927 38.573 L 69.917 39.073 L 69.927 39.073 L 69.927 38.573 Z M 66.099 38.515 L 66.105 38.015 L 66.099 38.015 L 66.099 38.515 Z M 62.184 38.544 L 62.175 38.044 L 62.175 38.044 L 62.184 38.544 Z M 58.823 38.573 L 58.323 38.573 L 58.323 39.073 L 58.823 39.073 L 58.823 38.573 Z M 58.823 35.212 L 58.817 34.712 L 58.323 34.718 L 58.323 35.212 L 58.823 35.212 Z M 62.125 34.774 L 62.349 35.222 L 62.361 35.215 L 62.125 34.774 Z M 62.943 33.196 L 63.443 33.196 L 63.443 33.196 L 62.943 33.196 Z M 62.943 23.202 L 63.443 23.202 L 63.443 23.202 L 62.943 23.202 Z M 61.949 17.387 L 61.501 17.608 L 61.503 17.613 L 61.949 17.387 Z M 57.829 15.43 L 57.829 14.93 L 57.829 14.93 L 57.829 15.43 Z M 54.118 16.247 L 54.342 16.694 L 54.348 16.691 L 54.118 16.247 Z M 51.488 18.234 L 51.113 17.904 L 51.113 17.904 L 51.488 18.234 Z M 49.939 20.66 L 49.476 20.473 L 49.439 20.563 L 49.439 20.66 L 49.939 20.66 Z M 50.846 35.037 L 50.751 35.528 L 50.754 35.529 L 50.846 35.037 Z M 54.235 35.212 L 54.735 35.212 L 54.735 34.712 L 54.235 34.712 L 54.235 35.212 Z M 54.235 38.573 L 54.235 39.073 L 54.735 39.073 L 54.735 38.573 L 54.235 38.573 Z M 50.582 38.573 L 50.574 39.073 L 50.582 39.073 L 50.582 38.573 Z M 46.345 38.515 L 46.351 38.015 L 46.345 38.015 L 46.345 38.515 Z M 42.634 38.544 L 42.643 39.044 L 42.643 39.044 L 42.634 38.544 Z M 39.391 38.573 L 38.891 38.573 L 38.891 39.073 L 39.391 39.073 L 39.391 38.573 Z M 39.391 35.212 L 39.391 34.712 L 38.891 34.712 L 38.891 35.212 L 39.391 35.212 Z M 42.371 35.096 L 42.435 35.592 L 42.443 35.591 L 42.451 35.589 L 42.371 35.096 Z M 43.481 34.599 L 43.056 34.337 L 43.05 34.347 L 43.481 34.599 Z M 43.715 33.518 L 44.215 33.518 L 44.215 33.518 L 43.715 33.518 Z M 43.715 5.289 L 44.215 5.289 L 44.215 5.289 L 43.715 5.289 Z M 42.927 4.208 L 42.785 4.687 L 42.793 4.69 L 42.801 4.692 L 42.927 4.208 Z M 40.852 3.945 L 40.863 3.445 L 40.852 3.445 L 40.852 3.945 Z M 39.565 3.945 L 39.065 3.945 L 39.065 4.445 L 39.565 4.445 L 39.565 3.945 Z M 39.565 0.644 L 39.565 0.144 L 39.065 0.144 L 39.065 0.644 L 39.565 0.644 Z M 46.55 0.614 L 46.559 1.114 L 46.559 1.114 L 46.55 0.614 Z M 49.91 0.497 L 50.41 0.497 L 50.41 -0.029 L 49.885 -0.002 L 49.91 0.497 Z M 95.7 11.688 L 95.7 11.188 L 95.7 11.188 L 95.7 11.688 Z M 98.389 11.864 L 98.889 11.864 L 98.889 11.423 L 98.451 11.368 L 98.389 11.864 Z M 98.389 19.053 L 98.389 19.553 L 98.889 19.553 L 98.889 19.053 L 98.389 19.053 Z M 97.22 19.053 L 97.22 18.553 L 97.22 18.553 L 97.22 19.053 Z M 96.08 19.082 L 95.611 19.255 L 95.739 19.602 L 96.108 19.581 L 96.08 19.082 Z M 94.766 17.007 L 95.099 16.634 L 95.099 16.634 L 94.766 17.007 Z M 92.516 16.276 L 92.516 15.776 L 92.516 15.776 L 92.516 16.276 Z M 88.132 18.644 L 88.534 18.94 L 88.536 18.938 L 88.132 18.644 Z M 86.262 24.751 L 86.736 24.909 L 86.759 24.841 L 86.761 24.77 L 86.262 24.751 Z M 86.203 25.687 L 85.703 25.669 L 85.703 25.678 L 85.703 25.687 L 86.203 25.687 Z M 86.174 27.761 L 85.674 27.749 L 85.674 27.761 L 86.174 27.761 Z M 86.174 33.488 L 85.674 33.488 L 85.674 33.488 L 86.174 33.488 Z M 87.197 35.037 L 87.099 35.527 L 87.107 35.529 L 87.115 35.53 L 87.197 35.037 Z M 90.967 35.212 L 91.467 35.212 L 91.467 34.712 L 90.967 34.712 L 90.967 35.212 Z M 90.967 38.573 L 90.967 39.073 L 91.467 39.073 L 91.467 38.573 L 90.967 38.573 Z M 87.051 38.544 L 87.058 38.044 L 87.058 38.044 L 87.051 38.544 Z M 82.434 38.515 L 82.434 38.015 L 82.434 38.015 L 82.434 38.515 Z M 78.693 38.544 L 78.684 38.044 L 78.684 38.044 L 78.693 38.544 Z M 75.537 38.573 L 75.037 38.573 L 75.037 39.073 L 75.537 39.073 L 75.537 38.573 Z M 75.537 35.212 L 75.537 34.712 L 75.037 34.712 L 75.037 35.212 L 75.537 35.212 Z M 78.605 35.066 L 78.526 34.573 L 78.523 34.573 L 78.605 35.066 Z M 79.687 34.481 L 79.228 34.281 L 79.225 34.288 L 79.222 34.296 L 79.687 34.481 Z M 79.892 33.108 L 80.392 33.108 L 80.392 33.108 L 79.892 33.108 Z M 79.892 17.036 L 80.392 17.036 L 80.392 17.036 L 79.892 17.036 Z M 79.044 15.751 L 78.939 16.24 L 78.943 16.241 L 79.044 15.751 Z M 75.684 15.575 L 75.184 15.575 L 75.184 16.075 L 75.684 16.075 L 75.684 15.575 Z M 75.684 12.303 L 75.684 11.803 L 75.184 11.803 L 75.184 12.303 L 75.684 12.303 Z M 79.132 12.332 L 79.115 12.832 L 79.124 12.832 L 79.132 12.832 L 79.132 12.332 Z M 80.009 12.332 L 80.009 12.832 L 80.009 12.832 L 80.009 12.332 Z M 82.872 12.273 L 82.892 12.773 L 82.892 12.773 L 82.872 12.273 Z M 85.853 12.186 L 86.353 12.186 L 86.353 11.676 L 85.843 11.686 L 85.853 12.186 Z M 85.853 17.592 L 85.353 17.592 L 86.302 17.812 L 85.853 17.592 Z M 89.71 13.237 L 89.448 12.812 L 89.445 12.813 L 89.71 13.237 Z M 111.363 33.138 L 110.863 33.138 L 110.863 33.138 L 111.363 33.138 Z M 112.239 34.92 L 112.067 35.389 L 112.074 35.392 L 112.081 35.394 L 112.239 34.92 Z M 115.425 35.212 L 115.925 35.212 L 115.925 34.712 L 115.425 34.712 L 115.425 35.212 Z M 115.425 38.572 L 115.425 39.072 L 115.925 39.072 L 115.925 38.572 L 115.425 38.572 Z M 113.321 38.572 L 113.309 39.072 L 113.321 39.072 L 113.321 38.572 Z M 108.44 38.544 L 108.426 39.044 L 108.433 39.044 L 108.44 39.044 L 108.44 38.544 Z M 107.009 38.515 L 107.009 38.015 L 107.009 38.015 L 107.009 38.515 Z M 103.824 38.544 L 103.814 38.044 L 103.814 38.044 L 103.824 38.544 Z M 101.019 38.572 L 100.519 38.572 L 100.519 39.072 L 101.019 39.072 L 101.019 38.572 Z M 101.019 35.212 L 101.019 34.712 L 100.519 34.712 L 100.519 35.212 L 101.019 35.212 Z M 103.824 35.066 L 103.909 35.559 L 103.917 35.558 L 103.926 35.556 L 103.824 35.066 Z M 104.876 34.452 L 104.429 34.229 L 104.423 34.241 L 104.876 34.452 Z M 104.204 15.751 L 104.284 15.257 L 104.284 15.257 L 104.204 15.751 Z M 101.165 15.575 L 100.665 15.575 L 100.665 16.068 L 101.158 16.075 L 101.165 15.575 Z M 101.165 12.303 L 101.165 11.803 L 100.665 11.803 L 100.665 12.303 L 101.165 12.303 Z M 105.694 12.273 L 105.694 11.773 L 105.68 11.774 L 105.694 12.273 Z M 108.499 12.244 L 108.489 11.744 L 108.488 11.744 L 108.499 12.244 Z M 111.363 12.156 L 111.863 12.156 L 111.863 11.636 L 111.343 11.657 L 111.363 12.156 Z M 108.003 0.38 L 108.003 -0.12 L 108.003 -0.12 L 108.003 0.38 Z M 110.282 1.257 L 109.923 1.604 L 109.929 1.61 L 109.935 1.616 L 110.282 1.257 Z M 111.158 3.507 L 111.658 3.507 L 111.658 3.507 L 111.158 3.507 Z M 110.282 5.728 L 109.929 5.374 L 109.923 5.38 L 110.282 5.728 Z M 108.031 6.604 L 108.031 7.104 L 108.031 7.104 L 108.031 6.604 Z M 105.694 5.728 L 105.335 6.075 L 105.341 6.081 L 105.347 6.087 L 105.694 5.728 Z M 104.817 3.478 L 104.317 3.478 L 104.317 3.478 L 104.817 3.478 Z M 105.694 1.257 L 106.042 1.616 L 106.042 1.616 L 105.694 1.257 Z M 19.286 0 L 19.286 0.5 C 21.291 0.5 23.219 0.85 25.07 1.549 L 25.247 1.081 L 25.424 0.613 C 23.458 -0.129 21.411 -0.5 19.286 -0.5 L 19.286 0 Z M 25.247 1.081 L 25.07 1.549 C 26.907 2.242 28.467 3.299 29.757 4.72 L 30.127 4.384 L 30.497 4.048 C 29.099 2.507 27.405 1.361 25.424 0.613 L 25.247 1.081 Z M 30.127 4.384 L 30.623 4.444 L 31.062 0.82 L 30.565 0.76 L 30.069 0.7 L 29.631 4.324 L 30.127 4.384 Z M 30.565 0.76 L 30.565 1.26 L 34.979 1.26 L 34.979 0.76 L 34.979 0.26 L 30.565 0.26 L 30.565 0.76 Z M 34.979 0.76 L 34.479 0.76 L 34.479 12.391 L 34.979 12.391 L 35.479 12.391 L 35.479 0.76 L 34.979 0.76 Z M 34.979 12.391 L 34.979 11.891 L 30.712 11.891 L 30.712 12.391 L 30.712 12.891 L 34.979 12.891 L 34.979 12.391 Z M 30.712 12.391 L 31.21 12.348 C 30.985 9.691 29.893 7.545 27.929 5.953 L 27.614 6.342 L 27.299 6.73 C 29.037 8.138 30.01 10.026 30.214 12.433 L 30.712 12.391 Z M 27.614 6.342 L 27.931 5.955 C 25.986 4.361 23.388 3.592 20.192 3.592 L 20.192 4.092 L 20.192 4.592 C 23.231 4.592 25.581 5.322 27.297 6.729 L 27.614 6.342 Z M 20.192 4.092 L 20.192 3.592 C 17.482 3.592 15.106 4.225 13.086 5.511 L 13.354 5.933 L 13.623 6.354 C 15.46 5.186 17.643 4.592 20.192 4.592 L 20.192 4.092 Z M 13.354 5.933 L 13.086 5.511 C 11.066 6.796 9.516 8.648 8.428 11.044 L 8.884 11.251 L 9.339 11.458 C 10.356 9.217 11.785 7.524 13.623 6.354 L 13.354 5.933 Z M 8.884 11.251 L 8.427 11.048 C 7.359 13.445 6.835 16.294 6.835 19.579 L 7.335 19.579 L 7.835 19.579 C 7.835 16.397 8.343 13.694 9.341 11.454 L 8.884 11.251 Z M 7.335 19.579 L 6.835 19.579 C 6.835 22.865 7.359 25.723 8.426 28.139 L 8.884 27.937 L 9.341 27.735 C 8.343 25.475 7.835 22.761 7.835 19.579 L 7.335 19.579 Z M 8.884 27.937 L 8.428 28.143 C 9.516 30.539 11.066 32.399 13.083 33.703 L 13.354 33.283 L 13.626 32.863 C 11.786 31.674 10.356 29.97 9.339 27.73 L 8.884 27.937 Z M 13.354 33.283 L 13.085 33.704 C 15.124 35.009 17.51 35.654 20.222 35.654 L 20.222 35.154 L 20.222 34.654 C 17.674 34.654 15.481 34.051 13.624 32.862 L 13.354 33.283 Z M 20.222 35.154 L 20.222 35.654 C 23.951 35.654 26.852 34.966 28.844 33.512 L 28.55 33.108 L 28.255 32.704 C 26.508 33.979 23.855 34.654 20.222 34.654 L 20.222 35.154 Z M 28.55 33.108 L 28.845 33.512 C 30.917 31.995 31.921 29.29 32.001 25.58 L 31.501 25.569 L 31.001 25.559 C 30.925 29.134 29.961 31.456 28.254 32.705 L 28.55 33.108 Z M 31.501 25.569 L 31.406 26.06 L 35.643 26.879 L 35.738 26.388 L 35.833 25.897 L 31.596 25.078 L 31.501 25.569 Z M 35.738 26.388 L 35.239 26.366 L 34.888 34.373 L 35.388 34.395 L 35.887 34.416 L 36.238 26.41 L 35.738 26.388 Z M 35.388 34.395 L 35.076 34.004 C 32.804 35.817 30.418 37.069 27.918 37.77 L 28.053 38.251 L 28.188 38.732 C 30.83 37.992 33.335 36.673 35.7 34.785 L 35.388 34.395 Z M 28.053 38.251 L 27.92 37.769 C 25.414 38.458 22.77 38.804 19.987 38.804 L 19.987 39.304 L 19.987 39.804 C 22.854 39.804 25.587 39.447 28.185 38.733 L 28.053 38.251 Z M 19.987 39.304 L 19.987 38.804 C 15.686 38.804 12.104 37.977 9.216 36.354 L 8.971 36.79 L 8.726 37.226 C 11.799 38.953 15.561 39.804 19.987 39.804 L 19.987 39.304 Z M 8.971 36.79 L 9.217 36.355 C 6.338 34.726 4.168 32.488 2.694 29.635 L 2.25 29.864 L 1.806 30.094 C 3.371 33.124 5.681 35.503 8.724 37.225 L 8.971 36.79 Z M 2.25 29.864 L 2.696 29.638 C 1.237 26.758 0.5 23.437 0.5 19.666 L 0 19.666 L -0.5 19.666 C -0.5 23.57 0.263 27.049 1.804 30.09 L 2.25 29.864 Z M 0 19.666 L 0.5 19.666 C 0.5 15.799 1.275 12.445 2.808 9.588 L 2.367 9.352 L 1.927 9.115 C 0.303 12.141 -0.5 15.663 -0.5 19.666 L 0 19.666 Z M 2.367 9.352 L 2.807 9.589 C 4.361 6.709 6.535 4.479 9.335 2.89 L 9.088 2.455 L 8.841 2.02 C 5.875 3.704 3.568 6.072 1.927 9.114 L 2.367 9.352 Z M 9.088 2.455 L 9.333 2.891 C 12.149 1.303 15.461 0.5 19.286 0.5 L 19.286 0 L 19.286 -0.5 C 15.319 -0.5 11.832 0.334 8.842 2.02 L 9.088 2.455 Z M 129.422 11.718 L 129.422 12.218 C 131.014 12.218 132.505 12.427 133.897 12.841 L 134.039 12.361 L 134.182 11.882 C 132.69 11.439 131.102 11.218 129.422 11.218 L 129.422 11.718 Z M 134.039 12.361 L 133.898 12.841 C 135.294 13.251 136.371 13.874 137.155 14.693 L 137.517 14.348 L 137.878 14.002 C 136.948 13.03 135.706 12.329 134.18 11.882 L 134.039 12.361 Z M 137.517 14.348 L 138.002 14.469 C 138.022 14.387 138.072 14.179 138.15 13.849 L 137.663 13.734 L 137.176 13.62 C 137.099 13.951 137.05 14.152 137.032 14.226 L 137.517 14.348 Z M 137.663 13.734 L 138.143 13.875 C 138.242 13.538 138.331 13.21 138.411 12.892 L 137.926 12.771 L 137.441 12.649 C 137.365 12.954 137.279 13.269 137.183 13.593 L 137.663 13.734 Z M 137.926 12.771 L 138.405 12.912 C 138.453 12.749 138.489 12.626 138.514 12.543 C 138.526 12.501 138.535 12.469 138.541 12.448 C 138.544 12.437 138.547 12.429 138.549 12.423 C 138.55 12.416 138.551 12.414 138.551 12.415 L 138.071 12.273 L 137.592 12.132 C 137.591 12.136 137.577 12.181 137.554 12.262 C 137.53 12.345 137.494 12.467 137.446 12.629 L 137.926 12.771 Z M 138.071 12.273 C 138.024 12.771 138.024 12.771 138.024 12.771 C 138.024 12.771 138.024 12.771 138.024 12.771 C 138.024 12.771 138.024 12.771 138.024 12.771 C 138.024 12.771 138.024 12.771 138.024 12.771 C 138.024 12.771 138.024 12.771 138.024 12.771 C 138.025 12.771 138.025 12.771 138.026 12.771 C 138.028 12.772 138.03 12.772 138.033 12.772 C 138.04 12.773 138.049 12.774 138.062 12.775 C 138.088 12.777 138.126 12.781 138.177 12.786 C 138.28 12.796 138.434 12.81 138.638 12.83 L 138.686 12.332 L 138.733 11.834 C 138.528 11.815 138.375 11.8 138.273 11.79 C 138.221 11.785 138.183 11.782 138.157 11.779 C 138.145 11.778 138.135 11.777 138.129 11.777 C 138.125 11.776 138.123 11.776 138.121 11.776 C 138.121 11.776 138.12 11.776 138.12 11.776 C 138.119 11.776 138.119 11.776 138.119 11.776 C 138.119 11.776 138.119 11.776 138.119 11.776 C 138.119 11.776 138.119 11.776 138.119 11.776 C 138.119 11.776 138.119 11.776 138.119 11.776 C 138.119 11.776 138.119 11.776 138.071 12.273 Z M 138.686 12.332 L 138.662 12.831 C 139.072 12.851 139.511 12.871 139.979 12.89 L 140 12.391 L 140.021 11.891 C 139.554 11.872 139.117 11.852 138.709 11.833 L 138.686 12.332 Z M 140 12.391 L 139.979 12.89 C 140.448 12.91 140.766 12.928 140.944 12.946 L 140.994 12.448 L 141.044 11.951 C 140.833 11.93 140.487 11.91 140.021 11.891 L 140 12.391 Z M 140.994 12.448 L 140.494 12.448 L 140.494 20.368 L 140.994 20.368 L 141.494 20.368 L 141.494 12.448 L 140.994 12.448 Z M 140.994 20.368 L 140.994 19.868 L 137.634 19.868 L 137.634 20.368 L 137.634 20.868 L 140.994 20.868 L 140.994 20.368 Z M 137.634 20.368 L 138.132 20.324 C 137.966 18.438 137.231 16.93 135.902 15.858 L 135.588 16.247 L 135.274 16.636 C 136.36 17.512 136.99 18.753 137.136 20.412 L 137.634 20.368 Z M 135.588 16.247 L 135.906 15.861 C 134.582 14.772 132.781 14.248 130.566 14.228 L 130.562 14.728 L 130.557 15.228 C 132.627 15.246 134.178 15.735 135.27 16.633 L 135.588 16.247 Z M 130.562 14.728 L 130.562 14.228 C 128.694 14.228 127.208 14.617 126.202 15.489 L 126.529 15.867 L 126.857 16.245 C 127.603 15.598 128.806 15.228 130.562 15.228 L 130.562 14.728 Z M 126.529 15.867 L 126.198 15.493 C 125.251 16.332 124.743 17.339 124.743 18.498 L 125.243 18.498 L 125.743 18.498 C 125.743 17.67 126.093 16.922 126.861 16.241 L 126.529 15.867 Z M 125.243 18.498 L 124.743 18.498 C 124.743 19.148 124.919 19.741 125.278 20.259 C 125.634 20.771 126.152 21.186 126.8 21.515 L 127.026 21.069 L 127.253 20.624 C 126.713 20.349 126.339 20.033 126.1 19.689 C 125.865 19.349 125.743 18.958 125.743 18.498 L 125.243 18.498 Z M 127.026 21.069 L 126.8 21.515 C 128.029 22.14 129.642 22.725 131.626 23.275 L 131.76 22.793 L 131.893 22.311 C 129.943 21.77 128.4 21.207 127.253 20.624 L 127.026 21.069 Z M 131.76 22.793 L 131.633 23.277 C 133.779 23.837 135.615 24.444 137.145 25.094 L 137.341 24.634 L 137.536 24.174 C 135.95 23.499 134.065 22.878 131.886 22.309 L 131.76 22.793 Z M 137.341 24.634 L 137.147 25.095 C 138.668 25.733 139.788 26.545 140.541 27.513 L 140.936 27.206 L 141.33 26.899 C 140.446 25.763 139.17 24.859 137.534 24.173 L 137.341 24.634 Z M 140.936 27.206 L 140.547 27.521 C 141.295 28.442 141.692 29.685 141.692 31.297 L 142.192 31.297 L 142.692 31.297 C 142.692 29.519 142.251 28.035 141.324 26.891 L 140.936 27.206 Z M 142.192 31.297 L 141.692 31.297 C 141.692 32.957 141.251 34.302 140.399 35.367 L 140.789 35.68 L 141.18 35.992 C 142.197 34.72 142.692 33.143 142.692 31.297 L 142.192 31.297 Z M 140.789 35.68 L 140.399 35.367 C 139.529 36.454 138.334 37.281 136.791 37.839 L 136.961 38.31 L 137.131 38.78 C 138.821 38.169 140.179 37.243 141.179 35.992 L 140.789 35.68 Z M 136.961 38.31 L 136.791 37.839 C 135.238 38.401 133.466 38.687 131.468 38.687 L 131.468 39.187 L 131.468 39.687 C 133.56 39.687 135.45 39.387 137.131 38.78 L 136.961 38.31 Z M 131.468 39.187 L 131.468 38.687 C 129.518 38.687 127.903 38.447 126.61 37.985 L 126.441 38.456 L 126.273 38.927 C 127.707 39.439 129.443 39.687 131.468 39.687 L 131.468 39.187 Z M 126.441 38.456 L 126.618 37.988 C 125.347 37.509 124.319 36.796 123.521 35.854 L 123.14 36.177 L 122.758 36.5 C 123.675 37.583 124.848 38.39 126.265 38.924 L 126.441 38.456 Z M 123.14 36.177 L 122.642 36.124 L 122.408 38.345 L 122.905 38.397 L 123.403 38.45 L 123.637 36.229 L 123.14 36.177 Z M 122.905 38.397 L 122.905 37.897 C 122.327 37.897 121.758 37.888 121.199 37.868 L 121.182 38.368 L 121.164 38.868 C 121.735 38.888 122.315 38.897 122.905 38.897 L 122.905 38.397 Z M 121.182 38.368 L 121.199 37.868 C 120.628 37.849 120.038 37.839 119.429 37.839 L 119.429 38.339 L 119.429 38.839 C 120.027 38.839 120.606 38.849 121.164 38.868 L 121.182 38.368 Z M 119.429 38.339 L 119.929 38.339 L 119.929 29.952 L 119.429 29.952 L 118.929 29.952 L 118.929 38.339 L 119.429 38.339 Z M 119.429 29.952 L 119.429 30.452 L 123.081 30.452 L 123.081 29.952 L 123.081 29.452 L 119.429 29.452 L 119.429 29.952 Z M 123.081 29.952 L 122.581 29.971 C 122.664 32.149 123.421 33.868 124.902 35.048 L 125.214 34.657 L 125.526 34.266 C 124.318 33.304 123.654 31.885 123.581 29.933 L 123.081 29.952 Z M 125.214 34.657 L 124.906 35.051 C 126.36 36.189 128.252 36.735 130.532 36.735 L 130.532 36.235 L 130.532 35.735 C 128.41 35.735 126.756 35.229 125.522 34.263 L 125.214 34.657 Z M 130.532 36.235 L 130.532 36.735 C 132.368 36.735 133.919 36.372 135.15 35.607 L 134.887 35.183 L 134.623 34.758 C 133.594 35.396 132.242 35.735 130.532 35.735 L 130.532 36.235 Z M 134.887 35.183 L 135.156 35.604 C 136.411 34.803 137.081 33.69 137.081 32.29 L 136.581 32.29 L 136.081 32.29 C 136.081 33.306 135.622 34.12 134.618 34.761 L 134.887 35.183 Z M 136.581 32.29 L 137.081 32.29 C 137.081 31.169 136.6 30.259 135.673 29.603 L 135.384 30.011 L 135.095 30.419 C 135.765 30.893 136.081 31.502 136.081 32.29 L 136.581 32.29 Z M 135.384 30.011 L 135.684 29.611 C 134.848 28.984 133.762 28.456 132.444 28.017 L 132.286 28.491 L 132.128 28.966 C 133.381 29.383 134.361 29.868 135.084 30.411 L 135.384 30.011 Z M 132.286 28.491 L 132.451 28.019 C 131.157 27.568 129.757 27.118 128.251 26.668 L 128.107 27.147 L 127.964 27.627 C 129.458 28.073 130.844 28.518 132.122 28.963 L 132.286 28.491 Z M 128.107 27.147 L 128.262 26.672 C 126.487 26.093 124.983 25.489 123.746 24.861 L 123.52 25.307 L 123.293 25.752 C 124.588 26.41 126.143 27.033 127.952 27.623 L 128.107 27.147 Z M 123.52 25.307 L 123.754 24.865 C 122.564 24.233 121.687 23.474 121.099 22.602 L 120.685 22.881 L 120.27 23.16 C 120.968 24.197 121.982 25.056 123.285 25.748 L 123.52 25.307 Z M 120.685 22.881 L 121.099 22.602 C 120.525 21.749 120.221 20.645 120.221 19.257 L 119.721 19.257 L 119.221 19.257 C 119.221 20.79 119.558 22.103 120.27 23.16 L 120.685 22.881 Z M 119.721 19.257 L 120.221 19.257 C 120.221 17.23 121.017 15.568 122.638 14.238 L 122.321 13.852 L 122.004 13.465 C 120.159 14.979 119.221 16.921 119.221 19.257 L 119.721 19.257 Z M 122.321 13.852 L 122.638 14.238 C 124.257 12.911 126.498 12.218 129.422 12.218 L 129.422 11.718 L 129.422 11.218 C 126.345 11.218 123.854 11.948 122.004 13.465 L 122.321 13.852 Z M 49.91 3.156 L 49.41 3.166 C 49.43 4.195 49.439 5.292 49.439 6.458 L 49.939 6.458 L 50.439 6.458 C 50.439 5.286 50.43 4.183 50.41 3.147 L 49.91 3.156 Z M 49.939 6.458 L 49.439 6.458 L 49.439 15.926 L 49.939 15.926 L 50.439 15.926 L 50.439 6.458 L 49.939 6.458 Z M 49.939 15.926 L 50.303 16.27 C 51.64 14.857 53.14 13.819 54.803 13.146 L 54.615 12.683 L 54.428 12.219 C 52.623 12.949 51.005 14.073 49.576 15.582 L 49.939 15.926 Z M 54.615 12.683 L 54.803 13.146 C 56.471 12.471 58.306 12.131 60.313 12.131 L 60.313 11.631 L 60.313 11.131 C 58.191 11.131 56.227 11.491 54.428 12.219 L 54.615 12.683 Z M 60.313 11.631 L 60.313 12.131 C 62.672 12.131 64.387 12.608 65.531 13.488 L 65.836 13.092 L 66.141 12.695 C 64.753 11.628 62.786 11.131 60.313 11.131 L 60.313 11.631 Z M 65.836 13.092 L 65.534 13.49 C 66.705 14.377 67.531 15.743 67.979 17.648 L 68.466 17.533 L 68.953 17.419 C 68.466 15.349 67.539 13.755 66.138 12.693 L 65.836 13.092 Z M 68.466 17.533 L 67.98 17.653 C 68.454 19.567 68.696 22.017 68.696 25.014 L 69.196 25.014 L 69.696 25.014 C 69.696 21.971 69.451 19.434 68.951 17.413 L 68.466 17.533 Z M 69.196 25.014 L 68.696 25.014 L 68.696 33.196 L 69.196 33.196 L 69.696 33.196 L 69.696 25.014 L 69.196 25.014 Z M 69.196 33.196 L 68.696 33.196 C 68.696 34.251 68.991 35.175 69.896 35.456 L 70.044 34.979 L 70.192 34.501 C 69.967 34.431 69.696 34.168 69.696 33.196 L 69.196 33.196 Z M 70.044 34.979 L 69.915 35.462 C 70.57 35.636 71.673 35.712 73.171 35.712 L 73.171 35.212 L 73.171 34.712 C 71.669 34.712 70.687 34.632 70.173 34.495 L 70.044 34.979 Z M 73.171 35.212 L 72.671 35.212 L 72.671 38.573 L 73.171 38.573 L 73.671 38.573 L 73.671 35.212 L 73.171 35.212 Z M 73.171 38.573 L 73.171 38.073 L 69.927 38.073 L 69.927 38.573 L 69.927 39.073 L 73.171 39.073 L 73.171 38.573 Z M 69.927 38.573 L 69.936 38.073 C 68.883 38.054 67.606 38.034 66.105 38.015 L 66.099 38.515 L 66.092 39.015 C 67.591 39.034 68.867 39.054 69.918 39.073 L 69.927 38.573 Z M 66.099 38.515 L 66.099 38.015 C 64.616 38.015 63.308 38.024 62.175 38.044 L 62.184 38.544 L 62.192 39.044 C 63.318 39.024 64.62 39.015 66.099 39.015 L 66.099 38.515 Z M 62.184 38.544 L 62.175 38.044 C 61.068 38.063 59.95 38.073 58.823 38.073 L 58.823 38.573 L 58.823 39.073 C 59.956 39.073 61.079 39.063 62.192 39.044 L 62.184 38.544 Z M 58.823 38.573 L 59.323 38.573 L 59.323 35.212 L 58.823 35.212 L 58.323 35.212 L 58.323 38.573 L 58.823 38.573 Z M 58.823 35.212 L 58.829 35.712 C 59.668 35.702 60.379 35.66 60.956 35.584 C 61.524 35.509 62.001 35.395 62.349 35.222 L 62.125 34.774 L 61.901 34.327 C 61.704 34.426 61.358 34.522 60.825 34.592 C 60.301 34.662 59.634 34.702 58.817 34.712 L 58.823 35.212 Z M 62.125 34.774 L 62.361 35.215 C 63.109 34.815 63.443 34.09 63.443 33.196 L 62.943 33.196 L 62.443 33.196 C 62.443 33.821 62.232 34.15 61.889 34.334 L 62.125 34.774 Z M 62.943 33.196 L 63.443 33.196 L 63.443 23.202 L 62.943 23.202 L 62.443 23.202 L 62.443 33.196 L 62.943 33.196 Z M 62.943 23.202 L 63.443 23.202 C 63.443 20.603 63.111 18.57 62.395 17.16 L 61.949 17.387 L 61.503 17.613 C 62.113 18.814 62.443 20.658 62.443 23.202 L 62.943 23.202 Z M 61.949 17.387 L 62.398 17.166 C 61.635 15.618 60.027 14.93 57.829 14.93 L 57.829 15.43 L 57.829 15.93 C 59.839 15.93 60.978 16.546 61.501 17.608 L 61.949 17.387 Z M 57.829 15.43 L 57.829 14.93 C 56.343 14.93 55.024 15.214 53.888 15.803 L 54.118 16.247 L 54.348 16.691 C 55.316 16.189 56.471 15.93 57.829 15.93 L 57.829 15.43 Z M 54.118 16.247 L 53.895 15.8 C 52.791 16.352 51.861 17.052 51.113 17.904 L 51.488 18.234 L 51.864 18.564 C 52.518 17.819 53.342 17.194 54.342 16.694 L 54.118 16.247 Z M 51.488 18.234 L 51.113 17.904 C 50.382 18.737 49.832 19.593 49.476 20.473 L 49.939 20.66 L 50.403 20.848 C 50.709 20.091 51.192 19.329 51.864 18.564 L 51.488 18.234 Z M 49.939 20.66 L 49.439 20.66 L 49.439 33.81 L 49.939 33.81 L 50.439 33.81 L 50.439 20.66 L 49.939 20.66 Z M 49.939 33.81 L 49.439 33.81 C 49.439 34.228 49.529 34.622 49.764 34.939 C 50.004 35.265 50.353 35.451 50.751 35.528 L 50.846 35.037 L 50.941 34.546 C 50.735 34.506 50.63 34.429 50.568 34.346 C 50.501 34.254 50.439 34.093 50.439 33.81 L 49.939 33.81 Z M 50.846 35.037 L 50.754 35.529 C 51.429 35.655 52.602 35.712 54.235 35.712 L 54.235 35.212 L 54.235 34.712 C 52.597 34.712 51.51 34.653 50.938 34.546 L 50.846 35.037 Z M 54.235 35.212 L 53.735 35.212 L 53.735 38.573 L 54.235 38.573 L 54.735 38.573 L 54.735 35.212 L 54.235 35.212 Z M 54.235 38.573 L 54.235 38.073 L 50.582 38.073 L 50.582 38.573 L 50.582 39.073 L 54.235 39.073 L 54.235 38.573 Z M 50.582 38.573 L 50.59 38.073 C 49.421 38.054 48.007 38.034 46.351 38.015 L 46.345 38.515 L 46.339 39.015 C 47.994 39.034 49.406 39.054 50.574 39.073 L 50.582 38.573 Z M 46.345 38.515 L 46.345 38.015 C 44.921 38.015 43.68 38.024 42.625 38.044 L 42.634 38.544 L 42.643 39.044 C 43.691 39.024 44.925 39.015 46.345 39.015 L 46.345 38.515 Z M 42.634 38.544 L 42.625 38.044 C 41.576 38.063 40.498 38.073 39.391 38.073 L 39.391 38.573 L 39.391 39.073 C 40.504 39.073 41.588 39.063 42.643 39.044 L 42.634 38.544 Z M 39.391 38.573 L 39.891 38.573 L 39.891 35.212 L 39.391 35.212 L 38.891 35.212 L 38.891 38.573 L 39.391 38.573 Z M 39.391 35.212 L 39.391 35.712 C 40.775 35.712 41.797 35.674 42.435 35.592 L 42.371 35.096 L 42.307 34.6 C 41.738 34.673 40.773 34.712 39.391 34.712 L 39.391 35.212 Z M 42.371 35.096 L 42.451 35.589 C 42.776 35.537 43.066 35.462 43.306 35.355 C 43.541 35.249 43.772 35.092 43.913 34.851 L 43.481 34.599 L 43.05 34.347 C 43.054 34.339 43.032 34.382 42.897 34.442 C 42.767 34.5 42.57 34.557 42.291 34.602 L 42.371 35.096 Z M 43.481 34.599 L 43.907 34.861 C 44.132 34.495 44.215 34.029 44.215 33.518 L 43.715 33.518 L 43.215 33.518 C 43.215 33.941 43.143 34.195 43.056 34.337 L 43.481 34.599 Z M 43.715 33.518 L 44.215 33.518 L 44.215 5.289 L 43.715 5.289 L 43.215 5.289 L 43.215 33.518 L 43.715 33.518 Z M 43.715 5.289 L 44.215 5.289 C 44.215 4.924 44.132 4.575 43.922 4.286 C 43.709 3.994 43.402 3.815 43.052 3.724 L 42.927 4.208 L 42.801 4.692 C 42.977 4.738 43.064 4.807 43.114 4.875 C 43.166 4.947 43.215 5.07 43.215 5.289 L 43.715 5.289 Z M 42.927 4.208 L 43.069 3.729 C 42.483 3.555 41.742 3.465 40.863 3.445 L 40.852 3.945 L 40.84 4.445 C 41.675 4.464 42.318 4.549 42.785 4.687 L 42.927 4.208 Z M 40.852 3.945 L 40.852 3.445 L 39.565 3.445 L 39.565 3.945 L 39.565 4.445 L 40.852 4.445 L 40.852 3.945 Z M 39.565 3.945 L 40.065 3.945 L 40.065 0.644 L 39.565 0.644 L 39.065 0.644 L 39.065 3.945 L 39.565 3.945 Z M 39.565 0.644 L 39.565 1.144 L 43.335 1.144 L 43.335 0.644 L 43.335 0.144 L 39.565 0.144 L 39.565 0.644 Z M 43.335 0.644 L 43.335 1.144 C 44.39 1.144 45.465 1.134 46.559 1.114 L 46.55 0.614 L 46.541 0.114 C 45.453 0.134 44.384 0.144 43.335 0.144 L 43.335 0.644 Z M 46.55 0.614 L 46.559 1.114 C 47.655 1.095 48.781 1.055 49.936 0.996 L 49.91 0.497 L 49.885 -0.002 C 48.741 0.056 47.626 0.095 46.541 0.114 L 46.55 0.614 Z M 49.91 0.497 L 49.41 0.497 L 49.41 3.156 L 49.91 3.156 L 50.41 3.156 L 50.41 0.497 L 49.91 0.497 Z M 95.7 11.688 L 95.7 12.188 C 96.535 12.188 97.41 12.246 98.327 12.36 L 98.389 11.864 L 98.451 11.368 C 97.497 11.249 96.58 11.188 95.7 11.188 L 95.7 11.688 Z M 98.389 11.864 L 97.889 11.864 L 97.889 19.053 L 98.389 19.053 L 98.889 19.053 L 98.889 11.864 L 98.389 11.864 Z M 98.389 19.053 L 98.389 18.553 L 97.22 18.553 L 97.22 19.053 L 97.22 19.553 L 98.389 19.553 L 98.389 19.053 Z M 97.22 19.053 L 97.22 18.553 C 96.803 18.553 96.413 18.563 96.052 18.583 L 96.08 19.082 L 96.108 19.581 C 96.448 19.562 96.819 19.553 97.22 19.553 L 97.22 19.053 Z M 96.08 19.082 L 96.549 18.909 C 96.198 17.959 95.721 17.19 95.099 16.634 L 94.766 17.007 L 94.433 17.38 C 94.901 17.798 95.3 18.413 95.611 19.255 L 96.08 19.082 Z M 94.766 17.007 L 95.099 16.634 C 94.436 16.043 93.554 15.776 92.516 15.776 L 92.516 16.276 L 92.516 16.776 C 93.386 16.776 94.004 16.997 94.433 17.38 L 94.766 17.007 Z M 92.516 16.276 L 92.516 15.776 C 90.565 15.776 88.96 16.657 87.728 18.349 L 88.132 18.644 L 88.536 18.938 C 89.602 17.474 90.921 16.776 92.516 16.776 L 92.516 16.276 Z M 88.132 18.644 L 87.729 18.347 C 86.505 20.007 85.862 22.148 85.762 24.732 L 86.262 24.751 L 86.761 24.77 C 86.856 22.328 87.46 20.397 88.534 18.94 L 88.132 18.644 Z M 86.262 24.751 L 85.787 24.593 C 85.762 24.668 85.754 24.753 85.75 24.79 C 85.744 24.846 85.738 24.917 85.733 24.998 C 85.723 25.161 85.713 25.385 85.703 25.669 L 86.203 25.687 L 86.703 25.704 C 86.713 25.423 86.722 25.209 86.731 25.06 C 86.736 24.985 86.741 24.931 86.744 24.895 C 86.75 24.839 86.751 24.863 86.736 24.909 L 86.262 24.751 Z M 86.203 25.687 L 85.703 25.687 C 85.703 26.246 85.693 26.933 85.674 27.749 L 86.174 27.761 L 86.674 27.773 C 86.693 26.952 86.703 26.257 86.703 25.687 L 86.203 25.687 Z M 86.174 27.761 L 85.674 27.761 L 85.674 33.488 L 86.174 33.488 L 86.674 33.488 L 86.674 27.761 L 86.174 27.761 Z M 86.174 33.488 L 85.674 33.488 C 85.674 33.993 85.769 34.454 86.013 34.823 C 86.266 35.207 86.645 35.437 87.099 35.527 L 87.197 35.037 L 87.295 34.547 C 87.067 34.501 86.935 34.405 86.847 34.272 C 86.75 34.124 86.674 33.88 86.674 33.488 L 86.174 33.488 Z M 87.197 35.037 L 87.115 35.53 C 87.862 35.655 89.157 35.712 90.967 35.712 L 90.967 35.212 L 90.967 34.712 C 89.153 34.712 87.935 34.653 87.279 34.544 L 87.197 35.037 Z M 90.967 35.212 L 90.467 35.212 L 90.467 38.573 L 90.967 38.573 L 91.467 38.573 L 91.467 35.212 L 90.967 35.212 Z M 90.967 38.573 L 90.967 38.073 C 89.645 38.073 88.342 38.063 87.058 38.044 L 87.051 38.544 L 87.043 39.044 C 88.332 39.063 89.64 39.073 90.967 39.073 L 90.967 38.573 Z M 87.051 38.544 L 87.058 38.044 C 85.769 38.024 84.227 38.015 82.434 38.015 L 82.434 38.515 L 82.434 39.015 C 84.224 39.015 85.761 39.024 87.043 39.044 L 87.051 38.544 Z M 82.434 38.515 L 82.434 38.015 C 80.951 38.015 79.701 38.024 78.684 38.044 L 78.693 38.544 L 78.703 39.044 C 79.712 39.024 80.955 39.015 82.434 39.015 L 82.434 38.515 Z M 78.693 38.544 L 78.684 38.044 C 77.694 38.063 76.645 38.073 75.537 38.073 L 75.537 38.573 L 75.537 39.073 C 76.65 39.073 77.706 39.063 78.703 39.044 L 78.693 38.544 Z M 75.537 38.573 L 76.037 38.573 L 76.037 35.212 L 75.537 35.212 L 75.037 35.212 L 75.037 38.573 L 75.537 38.573 Z M 75.537 35.212 L 75.537 35.712 C 76.997 35.712 78.058 35.665 78.688 35.56 L 78.605 35.066 L 78.523 34.573 C 77.984 34.663 76.999 34.712 75.537 34.712 L 75.537 35.212 Z M 78.605 35.066 L 78.685 35.56 C 79.306 35.46 79.926 35.229 80.151 34.667 L 79.687 34.481 L 79.222 34.296 C 79.213 34.318 79.112 34.478 78.526 34.573 L 78.605 35.066 Z M 79.687 34.481 L 80.145 34.682 C 80.322 34.276 80.392 33.736 80.392 33.108 L 79.892 33.108 L 79.392 33.108 C 79.392 33.688 79.324 34.064 79.228 34.281 L 79.687 34.481 Z M 79.892 33.108 L 80.392 33.108 L 80.392 17.036 L 79.892 17.036 L 79.392 17.036 L 79.392 33.108 L 79.892 33.108 Z M 79.892 17.036 L 80.392 17.036 C 80.392 16.609 80.311 16.209 80.097 15.885 C 79.873 15.546 79.54 15.343 79.145 15.261 L 79.044 15.751 L 78.943 16.241 C 79.113 16.276 79.203 16.346 79.262 16.435 C 79.331 16.539 79.392 16.723 79.392 17.036 L 79.892 17.036 Z M 79.044 15.751 L 79.149 15.262 C 78.543 15.132 77.369 15.075 75.684 15.075 L 75.684 15.575 L 75.684 16.075 C 77.388 16.075 78.454 16.136 78.939 16.24 L 79.044 15.751 Z M 75.684 15.575 L 76.184 15.575 L 76.184 12.303 L 75.684 12.303 L 75.184 12.303 L 75.184 15.575 L 75.684 15.575 Z M 75.684 12.303 L 75.684 12.803 L 77.203 12.803 L 77.203 12.303 L 77.203 11.803 L 75.684 11.803 L 75.684 12.303 Z M 77.203 12.303 L 77.203 12.803 C 77.9 12.803 78.537 12.812 79.115 12.832 L 79.132 12.332 L 79.148 11.832 C 78.558 11.813 77.909 11.803 77.203 11.803 L 77.203 12.303 Z M 79.132 12.332 L 79.132 12.832 L 80.009 12.832 L 80.009 12.332 L 80.009 11.832 L 79.132 11.832 L 79.132 12.332 Z M 80.009 12.332 L 80.009 12.832 C 80.951 12.832 81.912 12.812 82.892 12.773 L 82.872 12.273 L 82.852 11.774 C 81.885 11.813 80.937 11.832 80.009 11.832 L 80.009 12.332 Z M 82.872 12.273 L 82.892 12.773 C 83.863 12.734 84.853 12.705 85.862 12.685 L 85.853 12.186 L 85.843 11.686 C 84.827 11.705 83.83 11.735 82.852 11.774 L 82.872 12.273 Z M 85.853 12.186 L 85.353 12.186 L 85.353 17.592 L 85.853 17.592 L 86.353 17.592 L 86.353 12.186 L 85.853 12.186 Z M 85.853 17.592 L 86.302 17.812 C 87.179 16.02 88.403 14.641 89.975 13.662 L 89.71 13.237 L 89.445 12.813 C 87.705 13.898 86.357 15.424 85.403 17.372 L 85.853 17.592 Z M 89.71 13.237 L 89.972 13.663 C 91.556 12.687 93.458 12.189 95.7 12.188 L 95.7 11.688 L 95.7 11.188 C 93.306 11.189 91.215 11.723 89.448 12.812 L 89.71 13.237 Z M 111.363 33.138 L 110.863 33.138 C 110.863 34.184 111.183 35.065 112.067 35.389 L 112.239 34.92 L 112.412 34.451 C 112.128 34.346 111.863 34.039 111.863 33.138 L 111.363 33.138 Z M 112.239 34.92 L 112.081 35.394 C 112.752 35.618 113.889 35.712 115.425 35.712 L 115.425 35.212 L 115.425 34.712 C 113.883 34.712 112.896 34.612 112.397 34.446 L 112.239 34.92 Z M 115.425 35.212 L 114.925 35.212 L 114.925 38.572 L 115.425 38.572 L 115.925 38.572 L 115.925 35.212 L 115.425 35.212 Z M 115.425 38.572 L 115.425 38.072 L 113.321 38.072 L 113.321 38.572 L 113.321 39.072 L 115.425 39.072 L 115.425 38.572 Z M 113.321 38.572 L 113.333 38.072 C 112.51 38.053 111.658 38.044 110.778 38.044 L 110.778 38.544 L 110.778 39.044 C 111.652 39.044 112.496 39.053 113.309 39.072 L 113.321 38.572 Z M 110.778 38.544 L 110.778 38.044 L 108.44 38.044 L 108.44 38.544 L 108.44 39.044 L 110.778 39.044 L 110.778 38.544 Z M 108.44 38.544 L 108.455 38.044 C 107.773 38.025 107.289 38.015 107.009 38.015 L 107.009 38.515 L 107.009 39.015 C 107.273 39.015 107.744 39.024 108.426 39.044 L 108.44 38.544 Z M 107.009 38.515 L 107.009 38.015 C 105.799 38.015 104.733 38.024 103.814 38.044 L 103.824 38.544 L 103.835 39.044 C 104.746 39.024 105.804 39.015 107.009 39.015 L 107.009 38.515 Z M 103.824 38.544 L 103.814 38.044 C 102.902 38.063 101.97 38.072 101.019 38.072 L 101.019 38.572 L 101.019 39.072 C 101.976 39.072 102.915 39.063 103.835 39.044 L 103.824 38.544 Z M 101.019 38.572 L 101.519 38.572 L 101.519 35.212 L 101.019 35.212 L 100.519 35.212 L 100.519 38.572 L 101.019 38.572 Z M 101.019 35.212 L 101.019 35.712 C 102.325 35.712 103.298 35.664 103.909 35.559 L 103.824 35.066 L 103.739 34.574 C 103.22 34.663 102.322 34.712 101.019 34.712 L 101.019 35.212 Z M 103.824 35.066 L 103.926 35.556 C 104.528 35.431 105.088 35.18 105.329 34.664 L 104.876 34.452 L 104.423 34.241 C 104.391 34.309 104.25 34.468 103.723 34.577 L 103.824 35.066 Z M 104.876 34.452 L 105.323 34.676 C 105.531 34.259 105.609 33.698 105.609 33.05 L 105.109 33.05 L 104.609 33.05 C 104.609 33.648 104.532 34.021 104.429 34.229 L 104.876 34.452 Z M 105.109 33.05 L 105.609 33.05 L 105.609 16.861 L 105.109 16.861 L 104.609 16.861 L 104.609 33.05 L 105.109 33.05 Z M 105.109 16.861 L 105.609 16.861 C 105.609 16.465 105.516 16.087 105.271 15.786 C 105.023 15.482 104.672 15.32 104.284 15.257 L 104.204 15.751 L 104.124 16.245 C 104.34 16.279 104.442 16.352 104.496 16.418 C 104.552 16.487 104.609 16.615 104.609 16.861 L 105.109 16.861 Z M 104.204 15.751 L 104.284 15.257 C 103.64 15.154 102.595 15.095 101.172 15.075 L 101.165 15.575 L 101.158 16.075 C 102.579 16.095 103.56 16.154 104.124 16.245 L 104.204 15.751 Z M 101.165 15.575 L 101.665 15.575 L 101.665 12.303 L 101.165 12.303 L 100.665 12.303 L 100.665 15.575 L 101.165 15.575 Z M 101.165 12.303 L 101.165 12.803 L 103.502 12.803 L 103.502 12.303 L 103.502 11.803 L 101.165 11.803 L 101.165 12.303 Z M 103.502 12.303 L 103.502 12.803 C 104.266 12.803 105.002 12.793 105.708 12.773 L 105.694 12.273 L 105.68 11.774 C 104.984 11.793 104.257 11.803 103.502 11.803 L 103.502 12.303 Z M 105.694 12.273 L 105.694 12.773 C 106.652 12.773 107.591 12.764 108.51 12.744 L 108.499 12.244 L 108.488 11.744 C 107.577 11.764 106.645 11.773 105.694 11.773 L 105.694 12.273 Z M 108.499 12.244 L 108.509 12.744 C 109.448 12.724 110.406 12.695 111.383 12.656 L 111.363 12.156 L 111.343 11.657 C 110.372 11.695 109.42 11.725 108.489 11.744 L 108.499 12.244 Z M 111.363 12.156 L 110.863 12.156 L 110.863 33.138 L 111.363 33.138 L 111.863 33.138 L 111.863 12.156 L 111.363 12.156 Z M 108.003 0.38 L 108.003 0.88 C 108.847 0.88 109.468 1.134 109.923 1.604 L 110.282 1.257 L 110.642 0.909 C 109.966 0.211 109.067 -0.12 108.003 -0.12 L 108.003 0.38 Z M 110.282 1.257 L 109.935 1.616 C 110.406 2.072 110.658 2.685 110.658 3.507 L 111.158 3.507 L 111.658 3.507 C 111.658 2.459 111.327 1.571 110.63 0.897 L 110.282 1.257 Z M 111.158 3.507 L 110.658 3.507 C 110.658 4.283 110.411 4.892 109.929 5.374 L 110.282 5.728 L 110.636 6.081 C 111.322 5.394 111.658 4.523 111.658 3.507 L 111.158 3.507 Z M 110.282 5.728 L 109.923 5.38 C 109.466 5.852 108.853 6.104 108.031 6.104 L 108.031 6.604 L 108.031 7.104 C 109.08 7.104 109.968 6.772 110.642 6.075 L 110.282 5.728 Z M 108.031 6.604 L 108.031 6.104 C 107.188 6.104 106.54 5.85 106.042 5.368 L 105.694 5.728 L 105.347 6.087 C 106.056 6.774 106.966 7.104 108.031 7.104 L 108.031 6.604 Z M 105.694 5.728 L 106.054 5.38 C 105.566 4.876 105.317 4.253 105.317 3.478 L 104.817 3.478 L 104.317 3.478 C 104.317 4.494 104.654 5.372 105.335 6.075 L 105.694 5.728 Z M 104.817 3.478 L 105.317 3.478 C 105.317 2.679 105.568 2.075 106.042 1.616 L 105.694 1.257 L 105.347 0.897 C 104.652 1.569 104.317 2.445 104.317 3.478 L 104.817 3.478 Z M 105.694 1.257 L 106.042 1.616 C 106.542 1.132 107.182 0.88 108.003 0.88 L 108.003 0.38 L 108.003 -0.12 C 106.954 -0.12 106.055 0.213 105.347 0.898 L 105.694 1.257 Z" fill="currentColor" fill-rule="nonzero"></path>
</svg>